<mxfile host="65bd71144e">
    <diagram name="Page-1" id="1Tz0pQ19bJ6zTFS4KdeY">
        <mxGraphModel dx="3893" dy="1833" grid="0" gridSize="31" guides="1" tooltips="1" connect="1" arrows="1" fold="1" page="0" pageScale="1" pageWidth="1169" pageHeight="827" background="none" math="0" shadow="0">
            <root>
                <mxCell id="0"/>
                <mxCell id="1" parent="0"/>
                <mxCell id="rJx6zuT3XEwWVWlEGo10-1" value="User" style="shape=table;startSize=30;container=1;collapsible=1;childLayout=tableLayout;fixedRows=1;rowLines=0;fontStyle=1;align=center;resizeLast=1;labelBackgroundColor=none;fillColor=#1ba1e2;fontColor=#ffffff;strokeColor=#006EAF;" parent="1" vertex="1">
                    <mxGeometry x="186.64" y="506" width="439.4375" height="306" as="geometry"/>
                </mxCell>
                <mxCell id="rJx6zuT3XEwWVWlEGo10-2" value="" style="shape=tableRow;horizontal=0;startSize=0;swimlaneHead=0;swimlaneBody=0;collapsible=0;dropTarget=0;points=[[0,0.5],[1,0.5]];portConstraint=eastwest;top=0;left=0;right=0;bottom=1;fillColor=none;labelBackgroundColor=none;" parent="rJx6zuT3XEwWVWlEGo10-1" vertex="1">
                    <mxGeometry y="30" width="439.4375" height="30" as="geometry"/>
                </mxCell>
                <mxCell id="rJx6zuT3XEwWVWlEGo10-3" value="PK" style="shape=partialRectangle;overflow=hidden;connectable=0;top=0;left=0;bottom=0;right=0;fontStyle=1;fillColor=none;labelBackgroundColor=none;" parent="rJx6zuT3XEwWVWlEGo10-2" vertex="1">
                    <mxGeometry width="30" height="30" as="geometry">
                        <mxRectangle width="30" height="30" as="alternateBounds"/>
                    </mxGeometry>
                </mxCell>
                <mxCell id="rJx6zuT3XEwWVWlEGo10-4" value="id CHAR(36) " style="shape=partialRectangle;overflow=hidden;connectable=0;align=left;top=0;left=0;bottom=0;right=0;spacingLeft=6;fontStyle=5;fillColor=none;labelBackgroundColor=none;" parent="rJx6zuT3XEwWVWlEGo10-2" vertex="1">
                    <mxGeometry x="30" width="409.4375" height="30" as="geometry">
                        <mxRectangle width="409.4375" height="30" as="alternateBounds"/>
                    </mxGeometry>
                </mxCell>
                <mxCell id="rJx6zuT3XEwWVWlEGo10-221" value="" style="shape=tableRow;horizontal=0;startSize=0;swimlaneHead=0;swimlaneBody=0;collapsible=0;dropTarget=0;points=[[0,0.5],[1,0.5]];portConstraint=eastwest;top=0;left=0;right=0;bottom=0;fillColor=none;labelBackgroundColor=none;" parent="rJx6zuT3XEwWVWlEGo10-1" vertex="1">
                    <mxGeometry y="60" width="439.4375" height="30" as="geometry"/>
                </mxCell>
                <mxCell id="rJx6zuT3XEwWVWlEGo10-222" value="" style="shape=partialRectangle;overflow=hidden;connectable=0;top=0;left=0;bottom=0;right=0;fillColor=none;labelBackgroundColor=none;" parent="rJx6zuT3XEwWVWlEGo10-221" vertex="1">
                    <mxGeometry width="30" height="30" as="geometry">
                        <mxRectangle width="30" height="30" as="alternateBounds"/>
                    </mxGeometry>
                </mxCell>
                <mxCell id="rJx6zuT3XEwWVWlEGo10-223" value="username VARCHAR(150) NOT NULL UNIQUE" style="shape=partialRectangle;overflow=hidden;connectable=0;align=left;top=0;left=0;bottom=0;right=0;spacingLeft=6;fillColor=none;labelBackgroundColor=none;" parent="rJx6zuT3XEwWVWlEGo10-221" vertex="1">
                    <mxGeometry x="30" width="409.4375" height="30" as="geometry">
                        <mxRectangle width="409.4375" height="30" as="alternateBounds"/>
                    </mxGeometry>
                </mxCell>
                <mxCell id="rJx6zuT3XEwWVWlEGo10-5" value="" style="shape=tableRow;horizontal=0;startSize=0;swimlaneHead=0;swimlaneBody=0;collapsible=0;dropTarget=0;points=[[0,0.5],[1,0.5]];portConstraint=eastwest;top=0;left=0;right=0;bottom=0;fillColor=none;labelBackgroundColor=none;" parent="rJx6zuT3XEwWVWlEGo10-1" vertex="1">
                    <mxGeometry y="90" width="439.4375" height="30" as="geometry"/>
                </mxCell>
                <mxCell id="rJx6zuT3XEwWVWlEGo10-6" value="" style="shape=partialRectangle;overflow=hidden;connectable=0;top=0;left=0;bottom=0;right=0;fillColor=none;labelBackgroundColor=none;" parent="rJx6zuT3XEwWVWlEGo10-5" vertex="1">
                    <mxGeometry width="30" height="30" as="geometry">
                        <mxRectangle width="30" height="30" as="alternateBounds"/>
                    </mxGeometry>
                </mxCell>
                <mxCell id="rJx6zuT3XEwWVWlEGo10-7" value="username VARCHAR(150) NOT NULL UNIQUE" style="shape=partialRectangle;overflow=hidden;connectable=0;align=left;top=0;left=0;bottom=0;right=0;spacingLeft=6;fillColor=none;labelBackgroundColor=none;" parent="rJx6zuT3XEwWVWlEGo10-5" vertex="1">
                    <mxGeometry x="30" width="409.4375" height="30" as="geometry">
                        <mxRectangle width="409.4375" height="30" as="alternateBounds"/>
                    </mxGeometry>
                </mxCell>
                <mxCell id="rJx6zuT3XEwWVWlEGo10-8" value="" style="shape=tableRow;horizontal=0;startSize=0;swimlaneHead=0;swimlaneBody=0;collapsible=0;dropTarget=0;points=[[0,0.5],[1,0.5]];portConstraint=eastwest;top=0;left=0;right=0;bottom=0;fillColor=none;labelBackgroundColor=none;" parent="rJx6zuT3XEwWVWlEGo10-1" vertex="1">
                    <mxGeometry y="120" width="439.4375" height="30" as="geometry"/>
                </mxCell>
                <mxCell id="rJx6zuT3XEwWVWlEGo10-9" value="" style="shape=partialRectangle;overflow=hidden;connectable=0;top=0;left=0;bottom=0;right=0;fillColor=none;labelBackgroundColor=none;" parent="rJx6zuT3XEwWVWlEGo10-8" vertex="1">
                    <mxGeometry width="30" height="30" as="geometry">
                        <mxRectangle width="30" height="30" as="alternateBounds"/>
                    </mxGeometry>
                </mxCell>
                <mxCell id="rJx6zuT3XEwWVWlEGo10-10" value="email VARCHAR(254) NOT NULL UNIQUE" style="shape=partialRectangle;overflow=hidden;connectable=0;align=left;top=0;left=0;bottom=0;right=0;spacingLeft=6;fillColor=none;labelBackgroundColor=none;" parent="rJx6zuT3XEwWVWlEGo10-8" vertex="1">
                    <mxGeometry x="30" width="409.4375" height="30" as="geometry">
                        <mxRectangle width="409.4375" height="30" as="alternateBounds"/>
                    </mxGeometry>
                </mxCell>
                <mxCell id="rJx6zuT3XEwWVWlEGo10-11" value="" style="shape=tableRow;horizontal=0;startSize=0;swimlaneHead=0;swimlaneBody=0;collapsible=0;dropTarget=0;points=[[0,0.5],[1,0.5]];portConstraint=eastwest;top=0;left=0;right=0;bottom=0;fillColor=none;labelBackgroundColor=none;" parent="rJx6zuT3XEwWVWlEGo10-1" vertex="1">
                    <mxGeometry y="150" width="439.4375" height="36" as="geometry"/>
                </mxCell>
                <mxCell id="rJx6zuT3XEwWVWlEGo10-12" value="" style="shape=partialRectangle;overflow=hidden;connectable=0;top=0;left=0;bottom=0;right=0;fillColor=none;labelBackgroundColor=none;" parent="rJx6zuT3XEwWVWlEGo10-11" vertex="1">
                    <mxGeometry width="30" height="36" as="geometry">
                        <mxRectangle width="30" height="36" as="alternateBounds"/>
                    </mxGeometry>
                </mxCell>
                <mxCell id="rJx6zuT3XEwWVWlEGo10-13" value="password_hash VARCHAR(128) NOT NULL" style="shape=partialRectangle;overflow=hidden;connectable=0;align=left;top=0;left=0;bottom=0;right=0;spacingLeft=6;fillColor=none;labelBackgroundColor=none;" parent="rJx6zuT3XEwWVWlEGo10-11" vertex="1">
                    <mxGeometry x="30" width="409.4375" height="36" as="geometry">
                        <mxRectangle width="409.4375" height="36" as="alternateBounds"/>
                    </mxGeometry>
                </mxCell>
                <mxCell id="rJx6zuT3XEwWVWlEGo10-14" value="" style="shape=tableRow;horizontal=0;startSize=0;swimlaneHead=0;swimlaneBody=0;collapsible=0;dropTarget=0;points=[[0,0.5],[1,0.5]];portConstraint=eastwest;top=0;left=0;right=0;bottom=0;fillColor=none;labelBackgroundColor=none;" parent="rJx6zuT3XEwWVWlEGo10-1" vertex="1">
                    <mxGeometry y="186" width="439.4375" height="30" as="geometry"/>
                </mxCell>
                <mxCell id="rJx6zuT3XEwWVWlEGo10-15" value="" style="shape=partialRectangle;overflow=hidden;connectable=0;top=0;left=0;bottom=0;right=0;fillColor=none;labelBackgroundColor=none;" parent="rJx6zuT3XEwWVWlEGo10-14" vertex="1">
                    <mxGeometry width="30" height="30" as="geometry">
                        <mxRectangle width="30" height="30" as="alternateBounds"/>
                    </mxGeometry>
                </mxCell>
                <mxCell id="rJx6zuT3XEwWVWlEGo10-16" value="profile_image VARCHAR(2083)" style="shape=partialRectangle;overflow=hidden;connectable=0;align=left;top=0;left=0;bottom=0;right=0;spacingLeft=6;fillColor=none;labelBackgroundColor=none;" parent="rJx6zuT3XEwWVWlEGo10-14" vertex="1">
                    <mxGeometry x="30" width="409.4375" height="30" as="geometry">
                        <mxRectangle width="409.4375" height="30" as="alternateBounds"/>
                    </mxGeometry>
                </mxCell>
                <mxCell id="rJx6zuT3XEwWVWlEGo10-17" value="" style="shape=tableRow;horizontal=0;startSize=0;swimlaneHead=0;swimlaneBody=0;collapsible=0;dropTarget=0;points=[[0,0.5],[1,0.5]];portConstraint=eastwest;top=0;left=0;right=0;bottom=0;fillColor=none;labelBackgroundColor=none;" parent="rJx6zuT3XEwWVWlEGo10-1" vertex="1">
                    <mxGeometry y="216" width="439.4375" height="30" as="geometry"/>
                </mxCell>
                <mxCell id="rJx6zuT3XEwWVWlEGo10-18" value="" style="shape=partialRectangle;overflow=hidden;connectable=0;top=0;left=0;bottom=0;right=0;fillColor=none;labelBackgroundColor=none;" parent="rJx6zuT3XEwWVWlEGo10-17" vertex="1">
                    <mxGeometry width="30" height="30" as="geometry">
                        <mxRectangle width="30" height="30" as="alternateBounds"/>
                    </mxGeometry>
                </mxCell>
                <mxCell id="rJx6zuT3XEwWVWlEGo10-19" value="public_key TEXT" style="shape=partialRectangle;overflow=hidden;connectable=0;align=left;top=0;left=0;bottom=0;right=0;spacingLeft=6;fillColor=none;labelBackgroundColor=none;" parent="rJx6zuT3XEwWVWlEGo10-17" vertex="1">
                    <mxGeometry x="30" width="409.4375" height="30" as="geometry">
                        <mxRectangle width="409.4375" height="30" as="alternateBounds"/>
                    </mxGeometry>
                </mxCell>
                <mxCell id="rJx6zuT3XEwWVWlEGo10-20" value="" style="shape=tableRow;horizontal=0;startSize=0;swimlaneHead=0;swimlaneBody=0;collapsible=0;dropTarget=0;points=[[0,0.5],[1,0.5]];portConstraint=eastwest;top=0;left=0;right=0;bottom=0;fillColor=none;labelBackgroundColor=none;" parent="rJx6zuT3XEwWVWlEGo10-1" vertex="1">
                    <mxGeometry y="246" width="439.4375" height="30" as="geometry"/>
                </mxCell>
                <mxCell id="rJx6zuT3XEwWVWlEGo10-21" value="" style="shape=partialRectangle;overflow=hidden;connectable=0;top=0;left=0;bottom=0;right=0;fillColor=none;labelBackgroundColor=none;" parent="rJx6zuT3XEwWVWlEGo10-20" vertex="1">
                    <mxGeometry width="30" height="30" as="geometry">
                        <mxRectangle width="30" height="30" as="alternateBounds"/>
                    </mxGeometry>
                </mxCell>
                <mxCell id="rJx6zuT3XEwWVWlEGo10-22" value="private_key_encrypted TEXT" style="shape=partialRectangle;overflow=hidden;connectable=0;align=left;top=0;left=0;bottom=0;right=0;spacingLeft=6;fillColor=none;labelBackgroundColor=none;" parent="rJx6zuT3XEwWVWlEGo10-20" vertex="1">
                    <mxGeometry x="30" width="409.4375" height="30" as="geometry">
                        <mxRectangle width="409.4375" height="30" as="alternateBounds"/>
                    </mxGeometry>
                </mxCell>
                <mxCell id="rJx6zuT3XEwWVWlEGo10-23" value="" style="shape=tableRow;horizontal=0;startSize=0;swimlaneHead=0;swimlaneBody=0;collapsible=0;dropTarget=0;points=[[0,0.5],[1,0.5]];portConstraint=eastwest;top=0;left=0;right=0;bottom=0;fillColor=none;labelBackgroundColor=none;" parent="rJx6zuT3XEwWVWlEGo10-1" vertex="1">
                    <mxGeometry y="276" width="439.4375" height="30" as="geometry"/>
                </mxCell>
                <mxCell id="rJx6zuT3XEwWVWlEGo10-24" value="" style="shape=partialRectangle;overflow=hidden;connectable=0;top=0;left=0;bottom=0;right=0;fillColor=none;labelBackgroundColor=none;" parent="rJx6zuT3XEwWVWlEGo10-23" vertex="1">
                    <mxGeometry width="30" height="30" as="geometry">
                        <mxRectangle width="30" height="30" as="alternateBounds"/>
                    </mxGeometry>
                </mxCell>
                <mxCell id="rJx6zuT3XEwWVWlEGo10-25" value="created_at TIMESTAMP DEFAULT CURRENT_TIMESTAMP" style="shape=partialRectangle;overflow=hidden;connectable=0;align=left;top=0;left=0;bottom=0;right=0;spacingLeft=6;fillColor=none;labelBackgroundColor=none;" parent="rJx6zuT3XEwWVWlEGo10-23" vertex="1">
                    <mxGeometry x="30" width="409.4375" height="30" as="geometry">
                        <mxRectangle width="409.4375" height="30" as="alternateBounds"/>
                    </mxGeometry>
                </mxCell>
                <mxCell id="rJx6zuT3XEwWVWlEGo10-26" value="" style="shape=table;startSize=0;container=1;collapsible=1;childLayout=tableLayout;fixedRows=1;rowLines=0;fontStyle=1;align=center;resizeLast=1;labelBackgroundColor=none;" parent="1" vertex="1">
                    <mxGeometry x="1118" y="644" width="511" height="278" as="geometry"/>
                </mxCell>
                <mxCell id="25" value="" style="shape=tableRow;horizontal=0;startSize=0;swimlaneHead=0;swimlaneBody=0;collapsible=0;dropTarget=0;points=[[0,0.5],[1,0.5]];portConstraint=eastwest;top=0;left=0;right=0;bottom=1;fillColor=none;labelBackgroundColor=none;" vertex="1" parent="rJx6zuT3XEwWVWlEGo10-26">
                    <mxGeometry width="511" height="30" as="geometry"/>
                </mxCell>
                <mxCell id="26" value="" style="shape=partialRectangle;overflow=hidden;connectable=0;top=0;left=0;bottom=0;right=0;fontStyle=1;labelBackgroundColor=none;fillColor=#1ba1e2;fontColor=#ffffff;strokeColor=#006EAF;" vertex="1" parent="25">
                    <mxGeometry width="30" height="30" as="geometry">
                        <mxRectangle width="30" height="30" as="alternateBounds"/>
                    </mxGeometry>
                </mxCell>
                <mxCell id="27" value="Converation" style="shape=partialRectangle;overflow=hidden;connectable=0;align=center;top=0;left=0;bottom=0;right=0;spacingLeft=6;fontStyle=5;labelBackgroundColor=none;fillColor=#1ba1e2;fontColor=#ffffff;strokeColor=#006EAF;" vertex="1" parent="25">
                    <mxGeometry x="30" width="481" height="30" as="geometry">
                        <mxRectangle width="481" height="30" as="alternateBounds"/>
                    </mxGeometry>
                </mxCell>
                <mxCell id="rJx6zuT3XEwWVWlEGo10-27" value="" style="shape=tableRow;horizontal=0;startSize=0;swimlaneHead=0;swimlaneBody=0;collapsible=0;dropTarget=0;points=[[0,0.5],[1,0.5]];portConstraint=eastwest;top=0;left=0;right=0;bottom=1;fillColor=none;labelBackgroundColor=none;" parent="rJx6zuT3XEwWVWlEGo10-26" vertex="1">
                    <mxGeometry y="30" width="511" height="30" as="geometry"/>
                </mxCell>
                <mxCell id="rJx6zuT3XEwWVWlEGo10-28" value="PK" style="shape=partialRectangle;overflow=hidden;connectable=0;top=0;left=0;bottom=0;right=0;fontStyle=1;labelBackgroundColor=none;" parent="rJx6zuT3XEwWVWlEGo10-27" vertex="1">
                    <mxGeometry width="30" height="30" as="geometry">
                        <mxRectangle width="30" height="30" as="alternateBounds"/>
                    </mxGeometry>
                </mxCell>
                <mxCell id="rJx6zuT3XEwWVWlEGo10-29" value="id CHAR(36) " style="shape=partialRectangle;overflow=hidden;connectable=0;align=left;top=0;left=0;bottom=0;right=0;spacingLeft=6;fontStyle=5;labelBackgroundColor=none;" parent="rJx6zuT3XEwWVWlEGo10-27" vertex="1">
                    <mxGeometry x="30" width="481" height="30" as="geometry">
                        <mxRectangle width="481" height="30" as="alternateBounds"/>
                    </mxGeometry>
                </mxCell>
                <mxCell id="rJx6zuT3XEwWVWlEGo10-30" value="" style="shape=tableRow;horizontal=0;startSize=0;swimlaneHead=0;swimlaneBody=0;collapsible=0;dropTarget=0;points=[[0,0.5],[1,0.5]];portConstraint=eastwest;top=0;left=0;right=0;bottom=0;fillColor=none;labelBackgroundColor=none;" parent="rJx6zuT3XEwWVWlEGo10-26" vertex="1">
                    <mxGeometry y="60" width="511" height="30" as="geometry"/>
                </mxCell>
                <mxCell id="rJx6zuT3XEwWVWlEGo10-31" value="" style="shape=partialRectangle;overflow=hidden;connectable=0;top=0;left=0;bottom=0;right=0;labelBackgroundColor=none;" parent="rJx6zuT3XEwWVWlEGo10-30" vertex="1">
                    <mxGeometry width="30" height="30" as="geometry">
                        <mxRectangle width="30" height="30" as="alternateBounds"/>
                    </mxGeometry>
                </mxCell>
                <mxCell id="rJx6zuT3XEwWVWlEGo10-32" value="is_group BOOLEAN DEFAULT FALSE" style="shape=partialRectangle;overflow=hidden;connectable=0;align=left;top=0;left=0;bottom=0;right=0;spacingLeft=6;labelBackgroundColor=none;" parent="rJx6zuT3XEwWVWlEGo10-30" vertex="1">
                    <mxGeometry x="30" width="481" height="30" as="geometry">
                        <mxRectangle width="481" height="30" as="alternateBounds"/>
                    </mxGeometry>
                </mxCell>
                <mxCell id="rJx6zuT3XEwWVWlEGo10-33" value="" style="shape=tableRow;horizontal=0;startSize=0;swimlaneHead=0;swimlaneBody=0;collapsible=0;dropTarget=0;points=[[0,0.5],[1,0.5]];portConstraint=eastwest;top=0;left=0;right=0;bottom=0;labelBackgroundColor=none;" parent="rJx6zuT3XEwWVWlEGo10-26" vertex="1">
                    <mxGeometry y="90" width="511" height="30" as="geometry"/>
                </mxCell>
                <mxCell id="rJx6zuT3XEwWVWlEGo10-34" value="" style="shape=partialRectangle;overflow=hidden;connectable=0;top=0;left=0;bottom=0;right=0;labelBackgroundColor=none;" parent="rJx6zuT3XEwWVWlEGo10-33" vertex="1">
                    <mxGeometry width="30" height="30" as="geometry">
                        <mxRectangle width="30" height="30" as="alternateBounds"/>
                    </mxGeometry>
                </mxCell>
                <mxCell id="rJx6zuT3XEwWVWlEGo10-35" value="name VARCHAR(255)" style="shape=partialRectangle;overflow=hidden;connectable=0;align=left;top=0;left=0;bottom=0;right=0;spacingLeft=6;labelBackgroundColor=none;" parent="rJx6zuT3XEwWVWlEGo10-33" vertex="1">
                    <mxGeometry x="30" width="481" height="30" as="geometry">
                        <mxRectangle width="481" height="30" as="alternateBounds"/>
                    </mxGeometry>
                </mxCell>
                <mxCell id="rJx6zuT3XEwWVWlEGo10-36" value="" style="shape=tableRow;horizontal=0;startSize=0;swimlaneHead=0;swimlaneBody=0;collapsible=0;dropTarget=0;points=[[0,0.5],[1,0.5]];portConstraint=eastwest;top=0;left=0;right=0;bottom=0;labelBackgroundColor=none;" parent="rJx6zuT3XEwWVWlEGo10-26" vertex="1">
                    <mxGeometry y="120" width="511" height="30" as="geometry"/>
                </mxCell>
                <mxCell id="rJx6zuT3XEwWVWlEGo10-37" value="" style="shape=partialRectangle;overflow=hidden;connectable=0;top=0;left=0;bottom=0;right=0;labelBackgroundColor=none;" parent="rJx6zuT3XEwWVWlEGo10-36" vertex="1">
                    <mxGeometry width="30" height="30" as="geometry">
                        <mxRectangle width="30" height="30" as="alternateBounds"/>
                    </mxGeometry>
                </mxCell>
                <mxCell id="rJx6zuT3XEwWVWlEGo10-38" value="group_image VARCHAR(2083)" style="shape=partialRectangle;overflow=hidden;connectable=0;align=left;top=0;left=0;bottom=0;right=0;spacingLeft=6;labelBackgroundColor=none;" parent="rJx6zuT3XEwWVWlEGo10-36" vertex="1">
                    <mxGeometry x="30" width="481" height="30" as="geometry">
                        <mxRectangle width="481" height="30" as="alternateBounds"/>
                    </mxGeometry>
                </mxCell>
                <mxCell id="rJx6zuT3XEwWVWlEGo10-39" value="" style="shape=tableRow;horizontal=0;startSize=0;swimlaneHead=0;swimlaneBody=0;collapsible=0;dropTarget=0;points=[[0,0.5],[1,0.5]];portConstraint=eastwest;top=0;left=0;right=0;bottom=0;labelBackgroundColor=none;" parent="rJx6zuT3XEwWVWlEGo10-26" vertex="1">
                    <mxGeometry y="150" width="511" height="30" as="geometry"/>
                </mxCell>
                <mxCell id="rJx6zuT3XEwWVWlEGo10-40" value="" style="shape=partialRectangle;overflow=hidden;connectable=0;top=0;left=0;bottom=0;right=0;labelBackgroundColor=none;" parent="rJx6zuT3XEwWVWlEGo10-39" vertex="1">
                    <mxGeometry width="30" height="30" as="geometry">
                        <mxRectangle width="30" height="30" as="alternateBounds"/>
                    </mxGeometry>
                </mxCell>
                <mxCell id="rJx6zuT3XEwWVWlEGo10-41" value="description TEXT" style="shape=partialRectangle;overflow=hidden;connectable=0;align=left;top=0;left=0;bottom=0;right=0;spacingLeft=6;labelBackgroundColor=none;" parent="rJx6zuT3XEwWVWlEGo10-39" vertex="1">
                    <mxGeometry x="30" width="481" height="30" as="geometry">
                        <mxRectangle width="481" height="30" as="alternateBounds"/>
                    </mxGeometry>
                </mxCell>
                <mxCell id="rJx6zuT3XEwWVWlEGo10-42" value="" style="shape=tableRow;horizontal=0;startSize=0;swimlaneHead=0;swimlaneBody=0;collapsible=0;dropTarget=0;points=[[0,0.5],[1,0.5]];portConstraint=eastwest;top=0;left=0;right=0;bottom=0;labelBackgroundColor=none;" parent="rJx6zuT3XEwWVWlEGo10-26" vertex="1">
                    <mxGeometry y="180" width="511" height="30" as="geometry"/>
                </mxCell>
                <mxCell id="rJx6zuT3XEwWVWlEGo10-43" value="" style="shape=partialRectangle;overflow=hidden;connectable=0;top=0;left=0;bottom=0;right=0;labelBackgroundColor=none;" parent="rJx6zuT3XEwWVWlEGo10-42" vertex="1">
                    <mxGeometry width="30" height="30" as="geometry">
                        <mxRectangle width="30" height="30" as="alternateBounds"/>
                    </mxGeometry>
                </mxCell>
                <mxCell id="rJx6zuT3XEwWVWlEGo10-44" value="created_at TIMESTAMP DEFAULT CURRENT_TIMESTAMP" style="shape=partialRectangle;overflow=hidden;connectable=0;align=left;top=0;left=0;bottom=0;right=0;spacingLeft=6;labelBackgroundColor=none;" parent="rJx6zuT3XEwWVWlEGo10-42" vertex="1">
                    <mxGeometry x="30" width="481" height="30" as="geometry">
                        <mxRectangle width="481" height="30" as="alternateBounds"/>
                    </mxGeometry>
                </mxCell>
                <mxCell id="rJx6zuT3XEwWVWlEGo10-45" value="" style="shape=tableRow;horizontal=0;startSize=0;swimlaneHead=0;swimlaneBody=0;collapsible=0;dropTarget=0;points=[[0,0.5],[1,0.5]];portConstraint=eastwest;top=0;left=0;right=0;bottom=0;labelBackgroundColor=none;" parent="rJx6zuT3XEwWVWlEGo10-26" vertex="1">
                    <mxGeometry y="210" width="511" height="30" as="geometry"/>
                </mxCell>
                <mxCell id="rJx6zuT3XEwWVWlEGo10-46" value="" style="shape=partialRectangle;overflow=hidden;connectable=0;top=0;left=0;bottom=0;right=0;labelBackgroundColor=none;" parent="rJx6zuT3XEwWVWlEGo10-45" vertex="1">
                    <mxGeometry width="30" height="30" as="geometry">
                        <mxRectangle width="30" height="30" as="alternateBounds"/>
                    </mxGeometry>
                </mxCell>
                <mxCell id="rJx6zuT3XEwWVWlEGo10-47" value="created_by CHAR(36)" style="shape=partialRectangle;overflow=hidden;connectable=0;align=left;top=0;left=0;bottom=0;right=0;spacingLeft=6;labelBackgroundColor=none;" parent="rJx6zuT3XEwWVWlEGo10-45" vertex="1">
                    <mxGeometry x="30" width="481" height="30" as="geometry">
                        <mxRectangle width="481" height="30" as="alternateBounds"/>
                    </mxGeometry>
                </mxCell>
                <mxCell id="rJx6zuT3XEwWVWlEGo10-48" value="" style="shape=tableRow;horizontal=0;startSize=0;swimlaneHead=0;swimlaneBody=0;collapsible=0;dropTarget=0;points=[[0,0.5],[1,0.5]];portConstraint=eastwest;top=0;left=0;right=0;bottom=0;labelBackgroundColor=none;" parent="rJx6zuT3XEwWVWlEGo10-26" vertex="1">
                    <mxGeometry y="240" width="511" height="30" as="geometry"/>
                </mxCell>
                <mxCell id="rJx6zuT3XEwWVWlEGo10-49" value="" style="shape=partialRectangle;overflow=hidden;connectable=0;top=0;left=0;bottom=0;right=0;labelBackgroundColor=none;" parent="rJx6zuT3XEwWVWlEGo10-48" vertex="1">
                    <mxGeometry width="30" height="30" as="geometry">
                        <mxRectangle width="30" height="30" as="alternateBounds"/>
                    </mxGeometry>
                </mxCell>
                <mxCell id="rJx6zuT3XEwWVWlEGo10-50" value="FOREIGN KEY (created_by) REFERENCES User(id) ON DELETE CASCADE" style="shape=partialRectangle;overflow=hidden;connectable=0;align=left;top=0;left=0;bottom=0;right=0;spacingLeft=6;labelBackgroundColor=none;" parent="rJx6zuT3XEwWVWlEGo10-48" vertex="1">
                    <mxGeometry x="30" width="481" height="30" as="geometry">
                        <mxRectangle width="481" height="30" as="alternateBounds"/>
                    </mxGeometry>
                </mxCell>
                <mxCell id="rJx6zuT3XEwWVWlEGo10-51" value="GroupAdmin" style="shape=table;startSize=30;container=1;collapsible=1;childLayout=tableLayout;fixedRows=1;rowLines=0;fontStyle=1;align=center;resizeLast=1;fillColor=#1ba1e2;labelBackgroundColor=none;fontColor=#ffffff;strokeColor=#006EAF;" parent="1" vertex="1">
                    <mxGeometry x="-807.67" y="589" width="577.6666666666667" height="180" as="geometry"/>
                </mxCell>
                <mxCell id="rJx6zuT3XEwWVWlEGo10-52" value="" style="shape=tableRow;horizontal=0;startSize=0;swimlaneHead=0;swimlaneBody=0;collapsible=0;dropTarget=0;points=[[0,0.5],[1,0.5]];portConstraint=eastwest;top=0;left=0;right=0;bottom=1;fillColor=none;labelBackgroundColor=none;" parent="rJx6zuT3XEwWVWlEGo10-51" vertex="1">
                    <mxGeometry y="30" width="577.6666666666667" height="30" as="geometry"/>
                </mxCell>
                <mxCell id="rJx6zuT3XEwWVWlEGo10-53" value="PK" style="shape=partialRectangle;overflow=hidden;connectable=0;top=0;left=0;bottom=0;right=0;fontStyle=1;fillColor=none;labelBackgroundColor=none;" parent="rJx6zuT3XEwWVWlEGo10-52" vertex="1">
                    <mxGeometry width="30" height="30" as="geometry">
                        <mxRectangle width="30" height="30" as="alternateBounds"/>
                    </mxGeometry>
                </mxCell>
                <mxCell id="rJx6zuT3XEwWVWlEGo10-54" value="id CHAR(36) " style="shape=partialRectangle;overflow=hidden;connectable=0;align=left;top=0;left=0;bottom=0;right=0;spacingLeft=6;fontStyle=5;fillColor=none;labelBackgroundColor=none;" parent="rJx6zuT3XEwWVWlEGo10-52" vertex="1">
                    <mxGeometry x="30" width="547.6666666666667" height="30" as="geometry">
                        <mxRectangle width="547.6666666666667" height="30" as="alternateBounds"/>
                    </mxGeometry>
                </mxCell>
                <mxCell id="rJx6zuT3XEwWVWlEGo10-55" value="" style="shape=tableRow;horizontal=0;startSize=0;swimlaneHead=0;swimlaneBody=0;collapsible=0;dropTarget=0;points=[[0,0.5],[1,0.5]];portConstraint=eastwest;top=0;left=0;right=0;bottom=0;fillColor=none;labelBackgroundColor=none;" parent="rJx6zuT3XEwWVWlEGo10-51" vertex="1">
                    <mxGeometry y="60" width="577.6666666666667" height="30" as="geometry"/>
                </mxCell>
                <mxCell id="rJx6zuT3XEwWVWlEGo10-56" value="" style="shape=partialRectangle;overflow=hidden;connectable=0;top=0;left=0;bottom=0;right=0;fillColor=none;labelBackgroundColor=none;" parent="rJx6zuT3XEwWVWlEGo10-55" vertex="1">
                    <mxGeometry width="30" height="30" as="geometry">
                        <mxRectangle width="30" height="30" as="alternateBounds"/>
                    </mxGeometry>
                </mxCell>
                <mxCell id="rJx6zuT3XEwWVWlEGo10-57" value="conversation_id CHAR(36)" style="shape=partialRectangle;overflow=hidden;connectable=0;align=left;top=0;left=0;bottom=0;right=0;spacingLeft=6;fillColor=none;labelBackgroundColor=none;" parent="rJx6zuT3XEwWVWlEGo10-55" vertex="1">
                    <mxGeometry x="30" width="547.6666666666667" height="30" as="geometry">
                        <mxRectangle width="547.6666666666667" height="30" as="alternateBounds"/>
                    </mxGeometry>
                </mxCell>
                <mxCell id="rJx6zuT3XEwWVWlEGo10-58" value="" style="shape=tableRow;horizontal=0;startSize=0;swimlaneHead=0;swimlaneBody=0;collapsible=0;dropTarget=0;points=[[0,0.5],[1,0.5]];portConstraint=eastwest;top=0;left=0;right=0;bottom=0;fillColor=none;labelBackgroundColor=none;" parent="rJx6zuT3XEwWVWlEGo10-51" vertex="1">
                    <mxGeometry y="90" width="577.6666666666667" height="30" as="geometry"/>
                </mxCell>
                <mxCell id="rJx6zuT3XEwWVWlEGo10-59" value="" style="shape=partialRectangle;overflow=hidden;connectable=0;top=0;left=0;bottom=0;right=0;fillColor=none;labelBackgroundColor=none;" parent="rJx6zuT3XEwWVWlEGo10-58" vertex="1">
                    <mxGeometry width="30" height="30" as="geometry">
                        <mxRectangle width="30" height="30" as="alternateBounds"/>
                    </mxGeometry>
                </mxCell>
                <mxCell id="rJx6zuT3XEwWVWlEGo10-60" value="admin_id CHAR(36)" style="shape=partialRectangle;overflow=hidden;connectable=0;align=left;top=0;left=0;bottom=0;right=0;spacingLeft=6;fillColor=none;labelBackgroundColor=none;" parent="rJx6zuT3XEwWVWlEGo10-58" vertex="1">
                    <mxGeometry x="30" width="547.6666666666667" height="30" as="geometry">
                        <mxRectangle width="547.6666666666667" height="30" as="alternateBounds"/>
                    </mxGeometry>
                </mxCell>
                <mxCell id="rJx6zuT3XEwWVWlEGo10-61" value="" style="shape=tableRow;horizontal=0;startSize=0;swimlaneHead=0;swimlaneBody=0;collapsible=0;dropTarget=0;points=[[0,0.5],[1,0.5]];portConstraint=eastwest;top=0;left=0;right=0;bottom=0;fillColor=none;labelBackgroundColor=none;" parent="rJx6zuT3XEwWVWlEGo10-51" vertex="1">
                    <mxGeometry y="120" width="577.6666666666667" height="30" as="geometry"/>
                </mxCell>
                <mxCell id="rJx6zuT3XEwWVWlEGo10-62" value="" style="shape=partialRectangle;overflow=hidden;connectable=0;top=0;left=0;bottom=0;right=0;fillColor=none;labelBackgroundColor=none;" parent="rJx6zuT3XEwWVWlEGo10-61" vertex="1">
                    <mxGeometry width="30" height="30" as="geometry">
                        <mxRectangle width="30" height="30" as="alternateBounds"/>
                    </mxGeometry>
                </mxCell>
                <mxCell id="rJx6zuT3XEwWVWlEGo10-63" value="FOREIGN KEY (conversation_id) REFERENCES Conversation(id) ON DELETE CASCADE" style="shape=partialRectangle;overflow=hidden;connectable=0;align=left;top=0;left=0;bottom=0;right=0;spacingLeft=6;fillColor=none;labelBackgroundColor=none;" parent="rJx6zuT3XEwWVWlEGo10-61" vertex="1">
                    <mxGeometry x="30" width="547.6666666666667" height="30" as="geometry">
                        <mxRectangle width="547.6666666666667" height="30" as="alternateBounds"/>
                    </mxGeometry>
                </mxCell>
                <mxCell id="rJx6zuT3XEwWVWlEGo10-64" value="" style="shape=tableRow;horizontal=0;startSize=0;swimlaneHead=0;swimlaneBody=0;collapsible=0;dropTarget=0;points=[[0,0.5],[1,0.5]];portConstraint=eastwest;top=0;left=0;right=0;bottom=0;fillColor=none;labelBackgroundColor=none;" parent="rJx6zuT3XEwWVWlEGo10-51" vertex="1">
                    <mxGeometry y="150" width="577.6666666666667" height="30" as="geometry"/>
                </mxCell>
                <mxCell id="rJx6zuT3XEwWVWlEGo10-65" value="" style="shape=partialRectangle;overflow=hidden;connectable=0;top=0;left=0;bottom=0;right=0;fillColor=none;labelBackgroundColor=none;" parent="rJx6zuT3XEwWVWlEGo10-64" vertex="1">
                    <mxGeometry width="30" height="30" as="geometry">
                        <mxRectangle width="30" height="30" as="alternateBounds"/>
                    </mxGeometry>
                </mxCell>
                <mxCell id="rJx6zuT3XEwWVWlEGo10-66" value="FOREIGN KEY (admin_id) REFERENCES User(id) ON DELETE CASCADE" style="shape=partialRectangle;overflow=hidden;connectable=0;align=left;top=0;left=0;bottom=0;right=0;spacingLeft=6;fillColor=none;labelBackgroundColor=none;" parent="rJx6zuT3XEwWVWlEGo10-64" vertex="1">
                    <mxGeometry x="30" width="547.6666666666667" height="30" as="geometry">
                        <mxRectangle width="547.6666666666667" height="30" as="alternateBounds"/>
                    </mxGeometry>
                </mxCell>
                <mxCell id="rJx6zuT3XEwWVWlEGo10-67" value="GroupInvitation" style="shape=table;startSize=30;container=1;collapsible=1;childLayout=tableLayout;fixedRows=1;rowLines=0;fontStyle=1;align=center;resizeLast=1;fillColor=#1ba1e2;labelBackgroundColor=none;fontColor=#ffffff;strokeColor=#006EAF;" parent="1" vertex="1">
                    <mxGeometry x="-774.0000000000001" y="863" width="544" height="300" as="geometry"/>
                </mxCell>
                <mxCell id="rJx6zuT3XEwWVWlEGo10-68" value="" style="shape=tableRow;horizontal=0;startSize=0;swimlaneHead=0;swimlaneBody=0;collapsible=0;dropTarget=0;points=[[0,0.5],[1,0.5]];portConstraint=eastwest;top=0;left=0;right=0;bottom=1;fillColor=none;labelBackgroundColor=none;" parent="rJx6zuT3XEwWVWlEGo10-67" vertex="1">
                    <mxGeometry y="30" width="544" height="30" as="geometry"/>
                </mxCell>
                <mxCell id="rJx6zuT3XEwWVWlEGo10-69" value="PK" style="shape=partialRectangle;overflow=hidden;connectable=0;top=0;left=0;bottom=0;right=0;fontStyle=1;fillColor=none;labelBackgroundColor=none;" parent="rJx6zuT3XEwWVWlEGo10-68" vertex="1">
                    <mxGeometry width="30" height="30" as="geometry">
                        <mxRectangle width="30" height="30" as="alternateBounds"/>
                    </mxGeometry>
                </mxCell>
                <mxCell id="rJx6zuT3XEwWVWlEGo10-70" value="id CHAR(36) " style="shape=partialRectangle;overflow=hidden;connectable=0;align=left;top=0;left=0;bottom=0;right=0;spacingLeft=6;fontStyle=5;fillColor=none;labelBackgroundColor=none;" parent="rJx6zuT3XEwWVWlEGo10-68" vertex="1">
                    <mxGeometry x="30" width="514" height="30" as="geometry">
                        <mxRectangle width="514" height="30" as="alternateBounds"/>
                    </mxGeometry>
                </mxCell>
                <mxCell id="rJx6zuT3XEwWVWlEGo10-71" value="" style="shape=tableRow;horizontal=0;startSize=0;swimlaneHead=0;swimlaneBody=0;collapsible=0;dropTarget=0;points=[[0,0.5],[1,0.5]];portConstraint=eastwest;top=0;left=0;right=0;bottom=0;fillColor=none;labelBackgroundColor=none;" parent="rJx6zuT3XEwWVWlEGo10-67" vertex="1">
                    <mxGeometry y="60" width="544" height="30" as="geometry"/>
                </mxCell>
                <mxCell id="rJx6zuT3XEwWVWlEGo10-72" value="" style="shape=partialRectangle;overflow=hidden;connectable=0;top=0;left=0;bottom=0;right=0;fillColor=none;labelBackgroundColor=none;" parent="rJx6zuT3XEwWVWlEGo10-71" vertex="1">
                    <mxGeometry width="30" height="30" as="geometry">
                        <mxRectangle width="30" height="30" as="alternateBounds"/>
                    </mxGeometry>
                </mxCell>
                <mxCell id="rJx6zuT3XEwWVWlEGo10-73" value="conversation_id CHAR(36)" style="shape=partialRectangle;overflow=hidden;connectable=0;align=left;top=0;left=0;bottom=0;right=0;spacingLeft=6;fillColor=none;labelBackgroundColor=none;" parent="rJx6zuT3XEwWVWlEGo10-71" vertex="1">
                    <mxGeometry x="30" width="514" height="30" as="geometry">
                        <mxRectangle width="514" height="30" as="alternateBounds"/>
                    </mxGeometry>
                </mxCell>
                <mxCell id="rJx6zuT3XEwWVWlEGo10-74" value="" style="shape=tableRow;horizontal=0;startSize=0;swimlaneHead=0;swimlaneBody=0;collapsible=0;dropTarget=0;points=[[0,0.5],[1,0.5]];portConstraint=eastwest;top=0;left=0;right=0;bottom=0;fillColor=none;labelBackgroundColor=none;" parent="rJx6zuT3XEwWVWlEGo10-67" vertex="1">
                    <mxGeometry y="90" width="544" height="30" as="geometry"/>
                </mxCell>
                <mxCell id="rJx6zuT3XEwWVWlEGo10-75" value="" style="shape=partialRectangle;overflow=hidden;connectable=0;top=0;left=0;bottom=0;right=0;fillColor=none;labelBackgroundColor=none;" parent="rJx6zuT3XEwWVWlEGo10-74" vertex="1">
                    <mxGeometry width="30" height="30" as="geometry">
                        <mxRectangle width="30" height="30" as="alternateBounds"/>
                    </mxGeometry>
                </mxCell>
                <mxCell id="rJx6zuT3XEwWVWlEGo10-76" value="invited_user_id CHAR(36)" style="shape=partialRectangle;overflow=hidden;connectable=0;align=left;top=0;left=0;bottom=0;right=0;spacingLeft=6;fillColor=none;labelBackgroundColor=none;" parent="rJx6zuT3XEwWVWlEGo10-74" vertex="1">
                    <mxGeometry x="30" width="514" height="30" as="geometry">
                        <mxRectangle width="514" height="30" as="alternateBounds"/>
                    </mxGeometry>
                </mxCell>
                <mxCell id="rJx6zuT3XEwWVWlEGo10-77" value="" style="shape=tableRow;horizontal=0;startSize=0;swimlaneHead=0;swimlaneBody=0;collapsible=0;dropTarget=0;points=[[0,0.5],[1,0.5]];portConstraint=eastwest;top=0;left=0;right=0;bottom=0;fillColor=none;labelBackgroundColor=none;" parent="rJx6zuT3XEwWVWlEGo10-67" vertex="1">
                    <mxGeometry y="120" width="544" height="30" as="geometry"/>
                </mxCell>
                <mxCell id="rJx6zuT3XEwWVWlEGo10-78" value="" style="shape=partialRectangle;overflow=hidden;connectable=0;top=0;left=0;bottom=0;right=0;fillColor=none;labelBackgroundColor=none;" parent="rJx6zuT3XEwWVWlEGo10-77" vertex="1">
                    <mxGeometry width="30" height="30" as="geometry">
                        <mxRectangle width="30" height="30" as="alternateBounds"/>
                    </mxGeometry>
                </mxCell>
                <mxCell id="rJx6zuT3XEwWVWlEGo10-79" value="invited_by_id CHAR(36)" style="shape=partialRectangle;overflow=hidden;connectable=0;align=left;top=0;left=0;bottom=0;right=0;spacingLeft=6;fillColor=none;labelBackgroundColor=none;" parent="rJx6zuT3XEwWVWlEGo10-77" vertex="1">
                    <mxGeometry x="30" width="514" height="30" as="geometry">
                        <mxRectangle width="514" height="30" as="alternateBounds"/>
                    </mxGeometry>
                </mxCell>
                <mxCell id="rJx6zuT3XEwWVWlEGo10-80" value="" style="shape=tableRow;horizontal=0;startSize=0;swimlaneHead=0;swimlaneBody=0;collapsible=0;dropTarget=0;points=[[0,0.5],[1,0.5]];portConstraint=eastwest;top=0;left=0;right=0;bottom=0;fillColor=none;labelBackgroundColor=none;" parent="rJx6zuT3XEwWVWlEGo10-67" vertex="1">
                    <mxGeometry y="150" width="544" height="30" as="geometry"/>
                </mxCell>
                <mxCell id="rJx6zuT3XEwWVWlEGo10-81" value="" style="shape=partialRectangle;overflow=hidden;connectable=0;top=0;left=0;bottom=0;right=0;fillColor=none;labelBackgroundColor=none;" parent="rJx6zuT3XEwWVWlEGo10-80" vertex="1">
                    <mxGeometry width="30" height="30" as="geometry">
                        <mxRectangle width="30" height="30" as="alternateBounds"/>
                    </mxGeometry>
                </mxCell>
                <mxCell id="rJx6zuT3XEwWVWlEGo10-82" value="created_at TIMESTAMP DEFAULT CURRENT_TIMESTAMP" style="shape=partialRectangle;overflow=hidden;connectable=0;align=left;top=0;left=0;bottom=0;right=0;spacingLeft=6;fillColor=none;labelBackgroundColor=none;" parent="rJx6zuT3XEwWVWlEGo10-80" vertex="1">
                    <mxGeometry x="30" width="514" height="30" as="geometry">
                        <mxRectangle width="514" height="30" as="alternateBounds"/>
                    </mxGeometry>
                </mxCell>
                <mxCell id="rJx6zuT3XEwWVWlEGo10-83" value="" style="shape=tableRow;horizontal=0;startSize=0;swimlaneHead=0;swimlaneBody=0;collapsible=0;dropTarget=0;points=[[0,0.5],[1,0.5]];portConstraint=eastwest;top=0;left=0;right=0;bottom=0;fillColor=none;labelBackgroundColor=none;" parent="rJx6zuT3XEwWVWlEGo10-67" vertex="1">
                    <mxGeometry y="180" width="544" height="30" as="geometry"/>
                </mxCell>
                <mxCell id="rJx6zuT3XEwWVWlEGo10-84" value="" style="shape=partialRectangle;overflow=hidden;connectable=0;top=0;left=0;bottom=0;right=0;fillColor=none;labelBackgroundColor=none;" parent="rJx6zuT3XEwWVWlEGo10-83" vertex="1">
                    <mxGeometry width="30" height="30" as="geometry">
                        <mxRectangle width="30" height="30" as="alternateBounds"/>
                    </mxGeometry>
                </mxCell>
                <mxCell id="rJx6zuT3XEwWVWlEGo10-85" value="status ENUM('pending', 'accepted', 'rejected') DEFAULT 'pending'" style="shape=partialRectangle;overflow=hidden;connectable=0;align=left;top=0;left=0;bottom=0;right=0;spacingLeft=6;fillColor=none;labelBackgroundColor=none;" parent="rJx6zuT3XEwWVWlEGo10-83" vertex="1">
                    <mxGeometry x="30" width="514" height="30" as="geometry">
                        <mxRectangle width="514" height="30" as="alternateBounds"/>
                    </mxGeometry>
                </mxCell>
                <mxCell id="rJx6zuT3XEwWVWlEGo10-86" value="" style="shape=tableRow;horizontal=0;startSize=0;swimlaneHead=0;swimlaneBody=0;collapsible=0;dropTarget=0;points=[[0,0.5],[1,0.5]];portConstraint=eastwest;top=0;left=0;right=0;bottom=0;fillColor=none;labelBackgroundColor=none;" parent="rJx6zuT3XEwWVWlEGo10-67" vertex="1">
                    <mxGeometry y="210" width="544" height="30" as="geometry"/>
                </mxCell>
                <mxCell id="rJx6zuT3XEwWVWlEGo10-87" value="" style="shape=partialRectangle;overflow=hidden;connectable=0;top=0;left=0;bottom=0;right=0;fillColor=none;labelBackgroundColor=none;" parent="rJx6zuT3XEwWVWlEGo10-86" vertex="1">
                    <mxGeometry width="30" height="30" as="geometry">
                        <mxRectangle width="30" height="30" as="alternateBounds"/>
                    </mxGeometry>
                </mxCell>
                <mxCell id="rJx6zuT3XEwWVWlEGo10-88" value="FOREIGN KEY (conversation_id) REFERENCES Conversation(id) ON DELETE CASCADE" style="shape=partialRectangle;overflow=hidden;connectable=0;align=left;top=0;left=0;bottom=0;right=0;spacingLeft=6;fillColor=none;labelBackgroundColor=none;" parent="rJx6zuT3XEwWVWlEGo10-86" vertex="1">
                    <mxGeometry x="30" width="514" height="30" as="geometry">
                        <mxRectangle width="514" height="30" as="alternateBounds"/>
                    </mxGeometry>
                </mxCell>
                <mxCell id="rJx6zuT3XEwWVWlEGo10-89" value="" style="shape=tableRow;horizontal=0;startSize=0;swimlaneHead=0;swimlaneBody=0;collapsible=0;dropTarget=0;points=[[0,0.5],[1,0.5]];portConstraint=eastwest;top=0;left=0;right=0;bottom=0;fillColor=none;labelBackgroundColor=none;" parent="rJx6zuT3XEwWVWlEGo10-67" vertex="1">
                    <mxGeometry y="240" width="544" height="30" as="geometry"/>
                </mxCell>
                <mxCell id="rJx6zuT3XEwWVWlEGo10-90" value="" style="shape=partialRectangle;overflow=hidden;connectable=0;top=0;left=0;bottom=0;right=0;fillColor=none;labelBackgroundColor=none;" parent="rJx6zuT3XEwWVWlEGo10-89" vertex="1">
                    <mxGeometry width="30" height="30" as="geometry">
                        <mxRectangle width="30" height="30" as="alternateBounds"/>
                    </mxGeometry>
                </mxCell>
                <mxCell id="rJx6zuT3XEwWVWlEGo10-91" value="FOREIGN KEY (invited_user_id) REFERENCES User(id) ON DELETE CASCADE" style="shape=partialRectangle;overflow=hidden;connectable=0;align=left;top=0;left=0;bottom=0;right=0;spacingLeft=6;fillColor=none;labelBackgroundColor=none;" parent="rJx6zuT3XEwWVWlEGo10-89" vertex="1">
                    <mxGeometry x="30" width="514" height="30" as="geometry">
                        <mxRectangle width="514" height="30" as="alternateBounds"/>
                    </mxGeometry>
                </mxCell>
                <mxCell id="rJx6zuT3XEwWVWlEGo10-92" value="" style="shape=tableRow;horizontal=0;startSize=0;swimlaneHead=0;swimlaneBody=0;collapsible=0;dropTarget=0;points=[[0,0.5],[1,0.5]];portConstraint=eastwest;top=0;left=0;right=0;bottom=0;fillColor=none;labelBackgroundColor=none;" parent="rJx6zuT3XEwWVWlEGo10-67" vertex="1">
                    <mxGeometry y="270" width="544" height="30" as="geometry"/>
                </mxCell>
                <mxCell id="rJx6zuT3XEwWVWlEGo10-93" value="" style="shape=partialRectangle;overflow=hidden;connectable=0;top=0;left=0;bottom=0;right=0;fillColor=none;labelBackgroundColor=none;" parent="rJx6zuT3XEwWVWlEGo10-92" vertex="1">
                    <mxGeometry width="30" height="30" as="geometry">
                        <mxRectangle width="30" height="30" as="alternateBounds"/>
                    </mxGeometry>
                </mxCell>
                <mxCell id="rJx6zuT3XEwWVWlEGo10-94" value="FOREIGN KEY (invited_by_id) REFERENCES User(id) ON DELETE CASCADE" style="shape=partialRectangle;overflow=hidden;connectable=0;align=left;top=0;left=0;bottom=0;right=0;spacingLeft=6;fillColor=none;labelBackgroundColor=none;" parent="rJx6zuT3XEwWVWlEGo10-92" vertex="1">
                    <mxGeometry x="30" width="514" height="30" as="geometry">
                        <mxRectangle width="514" height="30" as="alternateBounds"/>
                    </mxGeometry>
                </mxCell>
                <mxCell id="rJx6zuT3XEwWVWlEGo10-95" value="ConversationParticipant" style="shape=table;startSize=30;container=1;collapsible=1;childLayout=tableLayout;fixedRows=1;rowLines=0;fontStyle=1;align=center;resizeLast=1;fillColor=#1ba1e2;labelBackgroundColor=none;fontColor=#ffffff;strokeColor=#006EAF;" parent="1" vertex="1">
                    <mxGeometry x="1114" y="981" width="647" height="240" as="geometry"/>
                </mxCell>
                <mxCell id="rJx6zuT3XEwWVWlEGo10-96" value="" style="shape=tableRow;horizontal=0;startSize=0;swimlaneHead=0;swimlaneBody=0;collapsible=0;dropTarget=0;points=[[0,0.5],[1,0.5]];portConstraint=eastwest;top=0;left=0;right=0;bottom=1;fillColor=none;labelBackgroundColor=none;" parent="rJx6zuT3XEwWVWlEGo10-95" vertex="1">
                    <mxGeometry y="30" width="647" height="30" as="geometry"/>
                </mxCell>
                <mxCell id="rJx6zuT3XEwWVWlEGo10-97" value="PK" style="shape=partialRectangle;overflow=hidden;connectable=0;top=0;left=0;bottom=0;right=0;fontStyle=1;fillColor=none;labelBackgroundColor=none;" parent="rJx6zuT3XEwWVWlEGo10-96" vertex="1">
                    <mxGeometry width="30" height="30" as="geometry">
                        <mxRectangle width="30" height="30" as="alternateBounds"/>
                    </mxGeometry>
                </mxCell>
                <mxCell id="rJx6zuT3XEwWVWlEGo10-98" value="id CHAR(36) " style="shape=partialRectangle;overflow=hidden;connectable=0;align=left;top=0;left=0;bottom=0;right=0;spacingLeft=6;fontStyle=5;fillColor=none;labelBackgroundColor=none;" parent="rJx6zuT3XEwWVWlEGo10-96" vertex="1">
                    <mxGeometry x="30" width="617" height="30" as="geometry">
                        <mxRectangle width="617" height="30" as="alternateBounds"/>
                    </mxGeometry>
                </mxCell>
                <mxCell id="rJx6zuT3XEwWVWlEGo10-99" value="" style="shape=tableRow;horizontal=0;startSize=0;swimlaneHead=0;swimlaneBody=0;collapsible=0;dropTarget=0;points=[[0,0.5],[1,0.5]];portConstraint=eastwest;top=0;left=0;right=0;bottom=0;fillColor=none;labelBackgroundColor=none;" parent="rJx6zuT3XEwWVWlEGo10-95" vertex="1">
                    <mxGeometry y="60" width="647" height="30" as="geometry"/>
                </mxCell>
                <mxCell id="rJx6zuT3XEwWVWlEGo10-100" value="" style="shape=partialRectangle;overflow=hidden;connectable=0;top=0;left=0;bottom=0;right=0;fillColor=none;labelBackgroundColor=none;" parent="rJx6zuT3XEwWVWlEGo10-99" vertex="1">
                    <mxGeometry width="30" height="30" as="geometry">
                        <mxRectangle width="30" height="30" as="alternateBounds"/>
                    </mxGeometry>
                </mxCell>
                <mxCell id="rJx6zuT3XEwWVWlEGo10-101" value="conversation_id CHAR(36)" style="shape=partialRectangle;overflow=hidden;connectable=0;align=left;top=0;left=0;bottom=0;right=0;spacingLeft=6;fillColor=none;labelBackgroundColor=none;" parent="rJx6zuT3XEwWVWlEGo10-99" vertex="1">
                    <mxGeometry x="30" width="617" height="30" as="geometry">
                        <mxRectangle width="617" height="30" as="alternateBounds"/>
                    </mxGeometry>
                </mxCell>
                <mxCell id="rJx6zuT3XEwWVWlEGo10-102" value="" style="shape=tableRow;horizontal=0;startSize=0;swimlaneHead=0;swimlaneBody=0;collapsible=0;dropTarget=0;points=[[0,0.5],[1,0.5]];portConstraint=eastwest;top=0;left=0;right=0;bottom=0;fillColor=none;labelBackgroundColor=none;" parent="rJx6zuT3XEwWVWlEGo10-95" vertex="1">
                    <mxGeometry y="90" width="647" height="30" as="geometry"/>
                </mxCell>
                <mxCell id="rJx6zuT3XEwWVWlEGo10-103" value="" style="shape=partialRectangle;overflow=hidden;connectable=0;top=0;left=0;bottom=0;right=0;fillColor=none;labelBackgroundColor=none;" parent="rJx6zuT3XEwWVWlEGo10-102" vertex="1">
                    <mxGeometry width="30" height="30" as="geometry">
                        <mxRectangle width="30" height="30" as="alternateBounds"/>
                    </mxGeometry>
                </mxCell>
                <mxCell id="rJx6zuT3XEwWVWlEGo10-104" value="user_id CHAR(36)" style="shape=partialRectangle;overflow=hidden;connectable=0;align=left;top=0;left=0;bottom=0;right=0;spacingLeft=6;fillColor=none;labelBackgroundColor=none;" parent="rJx6zuT3XEwWVWlEGo10-102" vertex="1">
                    <mxGeometry x="30" width="617" height="30" as="geometry">
                        <mxRectangle width="617" height="30" as="alternateBounds"/>
                    </mxGeometry>
                </mxCell>
                <mxCell id="rJx6zuT3XEwWVWlEGo10-105" value="" style="shape=tableRow;horizontal=0;startSize=0;swimlaneHead=0;swimlaneBody=0;collapsible=0;dropTarget=0;points=[[0,0.5],[1,0.5]];portConstraint=eastwest;top=0;left=0;right=0;bottom=0;fillColor=none;labelBackgroundColor=none;" parent="rJx6zuT3XEwWVWlEGo10-95" vertex="1">
                    <mxGeometry y="120" width="647" height="30" as="geometry"/>
                </mxCell>
                <mxCell id="rJx6zuT3XEwWVWlEGo10-106" value="" style="shape=partialRectangle;overflow=hidden;connectable=0;top=0;left=0;bottom=0;right=0;fillColor=none;labelBackgroundColor=none;" parent="rJx6zuT3XEwWVWlEGo10-105" vertex="1">
                    <mxGeometry width="30" height="30" as="geometry">
                        <mxRectangle width="30" height="30" as="alternateBounds"/>
                    </mxGeometry>
                </mxCell>
                <mxCell id="rJx6zuT3XEwWVWlEGo10-107" value="joined_at TIMESTAMP DEFAULT CURRENT_TIMESTAMP" style="shape=partialRectangle;overflow=hidden;connectable=0;align=left;top=0;left=0;bottom=0;right=0;spacingLeft=6;fillColor=none;labelBackgroundColor=none;" parent="rJx6zuT3XEwWVWlEGo10-105" vertex="1">
                    <mxGeometry x="30" width="617" height="30" as="geometry">
                        <mxRectangle width="617" height="30" as="alternateBounds"/>
                    </mxGeometry>
                </mxCell>
                <mxCell id="rJx6zuT3XEwWVWlEGo10-108" value="" style="shape=tableRow;horizontal=0;startSize=0;swimlaneHead=0;swimlaneBody=0;collapsible=0;dropTarget=0;points=[[0,0.5],[1,0.5]];portConstraint=eastwest;top=0;left=0;right=0;bottom=0;fillColor=none;labelBackgroundColor=none;" parent="rJx6zuT3XEwWVWlEGo10-95" vertex="1">
                    <mxGeometry y="150" width="647" height="30" as="geometry"/>
                </mxCell>
                <mxCell id="rJx6zuT3XEwWVWlEGo10-109" value="" style="shape=partialRectangle;overflow=hidden;connectable=0;top=0;left=0;bottom=0;right=0;fillColor=none;labelBackgroundColor=none;" parent="rJx6zuT3XEwWVWlEGo10-108" vertex="1">
                    <mxGeometry width="30" height="30" as="geometry">
                        <mxRectangle width="30" height="30" as="alternateBounds"/>
                    </mxGeometry>
                </mxCell>
                <mxCell id="rJx6zuT3XEwWVWlEGo10-110" value="last_read_message CHAR(36)" style="shape=partialRectangle;overflow=hidden;connectable=0;align=left;top=0;left=0;bottom=0;right=0;spacingLeft=6;fillColor=none;labelBackgroundColor=none;" parent="rJx6zuT3XEwWVWlEGo10-108" vertex="1">
                    <mxGeometry x="30" width="617" height="30" as="geometry">
                        <mxRectangle width="617" height="30" as="alternateBounds"/>
                    </mxGeometry>
                </mxCell>
                <mxCell id="rJx6zuT3XEwWVWlEGo10-111" value="" style="shape=tableRow;horizontal=0;startSize=0;swimlaneHead=0;swimlaneBody=0;collapsible=0;dropTarget=0;points=[[0,0.5],[1,0.5]];portConstraint=eastwest;top=0;left=0;right=0;bottom=0;fillColor=none;labelBackgroundColor=none;" parent="rJx6zuT3XEwWVWlEGo10-95" vertex="1">
                    <mxGeometry y="180" width="647" height="30" as="geometry"/>
                </mxCell>
                <mxCell id="rJx6zuT3XEwWVWlEGo10-112" value="" style="shape=partialRectangle;overflow=hidden;connectable=0;top=0;left=0;bottom=0;right=0;fillColor=none;labelBackgroundColor=none;" parent="rJx6zuT3XEwWVWlEGo10-111" vertex="1">
                    <mxGeometry width="30" height="30" as="geometry">
                        <mxRectangle width="30" height="30" as="alternateBounds"/>
                    </mxGeometry>
                </mxCell>
                <mxCell id="rJx6zuT3XEwWVWlEGo10-113" value="FOREIGN KEY (conversation_id) REFERENCES Conversation(id) ON DELETE CASCADE" style="shape=partialRectangle;overflow=hidden;connectable=0;align=left;top=0;left=0;bottom=0;right=0;spacingLeft=6;fillColor=none;labelBackgroundColor=none;" parent="rJx6zuT3XEwWVWlEGo10-111" vertex="1">
                    <mxGeometry x="30" width="617" height="30" as="geometry">
                        <mxRectangle width="617" height="30" as="alternateBounds"/>
                    </mxGeometry>
                </mxCell>
                <mxCell id="rJx6zuT3XEwWVWlEGo10-114" value="" style="shape=tableRow;horizontal=0;startSize=0;swimlaneHead=0;swimlaneBody=0;collapsible=0;dropTarget=0;points=[[0,0.5],[1,0.5]];portConstraint=eastwest;top=0;left=0;right=0;bottom=0;fillColor=none;labelBackgroundColor=none;" parent="rJx6zuT3XEwWVWlEGo10-95" vertex="1">
                    <mxGeometry y="210" width="647" height="30" as="geometry"/>
                </mxCell>
                <mxCell id="rJx6zuT3XEwWVWlEGo10-115" value="" style="shape=partialRectangle;overflow=hidden;connectable=0;top=0;left=0;bottom=0;right=0;fillColor=none;labelBackgroundColor=none;" parent="rJx6zuT3XEwWVWlEGo10-114" vertex="1">
                    <mxGeometry width="30" height="30" as="geometry">
                        <mxRectangle width="30" height="30" as="alternateBounds"/>
                    </mxGeometry>
                </mxCell>
                <mxCell id="rJx6zuT3XEwWVWlEGo10-116" value="FOREIGN KEY (user_id) REFERENCES User(id) ON DELETE CASCADE" style="shape=partialRectangle;overflow=hidden;connectable=0;align=left;top=0;left=0;bottom=0;right=0;spacingLeft=6;fillColor=none;labelBackgroundColor=none;" parent="rJx6zuT3XEwWVWlEGo10-114" vertex="1">
                    <mxGeometry x="30" width="617" height="30" as="geometry">
                        <mxRectangle width="617" height="30" as="alternateBounds"/>
                    </mxGeometry>
                </mxCell>
                <mxCell id="rJx6zuT3XEwWVWlEGo10-117" value="Message" style="shape=table;startSize=30;container=1;collapsible=1;childLayout=tableLayout;fixedRows=1;rowLines=0;fontStyle=1;align=center;resizeLast=1;fillColor=#1ba1e2;labelBackgroundColor=none;fontColor=#ffffff;strokeColor=#006EAF;" parent="1" vertex="1">
                    <mxGeometry x="85" y="991" width="642.7142857142856" height="300" as="geometry"/>
                </mxCell>
                <mxCell id="rJx6zuT3XEwWVWlEGo10-118" value="" style="shape=tableRow;horizontal=0;startSize=0;swimlaneHead=0;swimlaneBody=0;collapsible=0;dropTarget=0;points=[[0,0.5],[1,0.5]];portConstraint=eastwest;top=0;left=0;right=0;bottom=1;fillColor=none;labelBackgroundColor=none;" parent="rJx6zuT3XEwWVWlEGo10-117" vertex="1">
                    <mxGeometry y="30" width="642.7142857142856" height="30" as="geometry"/>
                </mxCell>
                <mxCell id="rJx6zuT3XEwWVWlEGo10-119" value="PK" style="shape=partialRectangle;overflow=hidden;connectable=0;top=0;left=0;bottom=0;right=0;fontStyle=1;fillColor=none;labelBackgroundColor=none;" parent="rJx6zuT3XEwWVWlEGo10-118" vertex="1">
                    <mxGeometry width="30" height="30" as="geometry">
                        <mxRectangle width="30" height="30" as="alternateBounds"/>
                    </mxGeometry>
                </mxCell>
                <mxCell id="rJx6zuT3XEwWVWlEGo10-120" value="id CHAR(36) " style="shape=partialRectangle;overflow=hidden;connectable=0;align=left;top=0;left=0;bottom=0;right=0;spacingLeft=6;fontStyle=5;fillColor=none;labelBackgroundColor=none;" parent="rJx6zuT3XEwWVWlEGo10-118" vertex="1">
                    <mxGeometry x="30" width="612.7142857142856" height="30" as="geometry">
                        <mxRectangle width="612.7142857142856" height="30" as="alternateBounds"/>
                    </mxGeometry>
                </mxCell>
                <mxCell id="rJx6zuT3XEwWVWlEGo10-121" value="" style="shape=tableRow;horizontal=0;startSize=0;swimlaneHead=0;swimlaneBody=0;collapsible=0;dropTarget=0;points=[[0,0.5],[1,0.5]];portConstraint=eastwest;top=0;left=0;right=0;bottom=0;fillColor=none;labelBackgroundColor=none;" parent="rJx6zuT3XEwWVWlEGo10-117" vertex="1">
                    <mxGeometry y="60" width="642.7142857142856" height="30" as="geometry"/>
                </mxCell>
                <mxCell id="rJx6zuT3XEwWVWlEGo10-122" value="" style="shape=partialRectangle;overflow=hidden;connectable=0;top=0;left=0;bottom=0;right=0;fillColor=none;labelBackgroundColor=none;" parent="rJx6zuT3XEwWVWlEGo10-121" vertex="1">
                    <mxGeometry width="30" height="30" as="geometry">
                        <mxRectangle width="30" height="30" as="alternateBounds"/>
                    </mxGeometry>
                </mxCell>
                <mxCell id="rJx6zuT3XEwWVWlEGo10-123" value="conversation_id CHAR(36)" style="shape=partialRectangle;overflow=hidden;connectable=0;align=left;top=0;left=0;bottom=0;right=0;spacingLeft=6;fillColor=none;labelBackgroundColor=none;" parent="rJx6zuT3XEwWVWlEGo10-121" vertex="1">
                    <mxGeometry x="30" width="612.7142857142856" height="30" as="geometry">
                        <mxRectangle width="612.7142857142856" height="30" as="alternateBounds"/>
                    </mxGeometry>
                </mxCell>
                <mxCell id="rJx6zuT3XEwWVWlEGo10-124" value="" style="shape=tableRow;horizontal=0;startSize=0;swimlaneHead=0;swimlaneBody=0;collapsible=0;dropTarget=0;points=[[0,0.5],[1,0.5]];portConstraint=eastwest;top=0;left=0;right=0;bottom=0;fillColor=none;labelBackgroundColor=none;" parent="rJx6zuT3XEwWVWlEGo10-117" vertex="1">
                    <mxGeometry y="90" width="642.7142857142856" height="30" as="geometry"/>
                </mxCell>
                <mxCell id="rJx6zuT3XEwWVWlEGo10-125" value="" style="shape=partialRectangle;overflow=hidden;connectable=0;top=0;left=0;bottom=0;right=0;fillColor=none;labelBackgroundColor=none;" parent="rJx6zuT3XEwWVWlEGo10-124" vertex="1">
                    <mxGeometry width="30" height="30" as="geometry">
                        <mxRectangle width="30" height="30" as="alternateBounds"/>
                    </mxGeometry>
                </mxCell>
                <mxCell id="rJx6zuT3XEwWVWlEGo10-126" value="sender_id CHAR(36)" style="shape=partialRectangle;overflow=hidden;connectable=0;align=left;top=0;left=0;bottom=0;right=0;spacingLeft=6;fillColor=none;labelBackgroundColor=none;" parent="rJx6zuT3XEwWVWlEGo10-124" vertex="1">
                    <mxGeometry x="30" width="612.7142857142856" height="30" as="geometry">
                        <mxRectangle width="612.7142857142856" height="30" as="alternateBounds"/>
                    </mxGeometry>
                </mxCell>
                <mxCell id="rJx6zuT3XEwWVWlEGo10-127" value="" style="shape=tableRow;horizontal=0;startSize=0;swimlaneHead=0;swimlaneBody=0;collapsible=0;dropTarget=0;points=[[0,0.5],[1,0.5]];portConstraint=eastwest;top=0;left=0;right=0;bottom=0;fillColor=none;labelBackgroundColor=none;" parent="rJx6zuT3XEwWVWlEGo10-117" vertex="1">
                    <mxGeometry y="120" width="642.7142857142856" height="30" as="geometry"/>
                </mxCell>
                <mxCell id="rJx6zuT3XEwWVWlEGo10-128" value="" style="shape=partialRectangle;overflow=hidden;connectable=0;top=0;left=0;bottom=0;right=0;fillColor=none;labelBackgroundColor=none;" parent="rJx6zuT3XEwWVWlEGo10-127" vertex="1">
                    <mxGeometry width="30" height="30" as="geometry">
                        <mxRectangle width="30" height="30" as="alternateBounds"/>
                    </mxGeometry>
                </mxCell>
                <mxCell id="rJx6zuT3XEwWVWlEGo10-129" value="message_text TEXT" style="shape=partialRectangle;overflow=hidden;connectable=0;align=left;top=0;left=0;bottom=0;right=0;spacingLeft=6;fillColor=none;labelBackgroundColor=none;" parent="rJx6zuT3XEwWVWlEGo10-127" vertex="1">
                    <mxGeometry x="30" width="612.7142857142856" height="30" as="geometry">
                        <mxRectangle width="612.7142857142856" height="30" as="alternateBounds"/>
                    </mxGeometry>
                </mxCell>
                <mxCell id="rJx6zuT3XEwWVWlEGo10-130" value="" style="shape=tableRow;horizontal=0;startSize=0;swimlaneHead=0;swimlaneBody=0;collapsible=0;dropTarget=0;points=[[0,0.5],[1,0.5]];portConstraint=eastwest;top=0;left=0;right=0;bottom=0;fillColor=none;labelBackgroundColor=none;" parent="rJx6zuT3XEwWVWlEGo10-117" vertex="1">
                    <mxGeometry y="150" width="642.7142857142856" height="30" as="geometry"/>
                </mxCell>
                <mxCell id="rJx6zuT3XEwWVWlEGo10-131" value="" style="shape=partialRectangle;overflow=hidden;connectable=0;top=0;left=0;bottom=0;right=0;fillColor=none;labelBackgroundColor=none;" parent="rJx6zuT3XEwWVWlEGo10-130" vertex="1">
                    <mxGeometry width="30" height="30" as="geometry">
                        <mxRectangle width="30" height="30" as="alternateBounds"/>
                    </mxGeometry>
                </mxCell>
                <mxCell id="rJx6zuT3XEwWVWlEGo10-132" value="message_type VARCHAR(20) DEFAULT 'text'" style="shape=partialRectangle;overflow=hidden;connectable=0;align=left;top=0;left=0;bottom=0;right=0;spacingLeft=6;fillColor=none;labelBackgroundColor=none;" parent="rJx6zuT3XEwWVWlEGo10-130" vertex="1">
                    <mxGeometry x="30" width="612.7142857142856" height="30" as="geometry">
                        <mxRectangle width="612.7142857142856" height="30" as="alternateBounds"/>
                    </mxGeometry>
                </mxCell>
                <mxCell id="rJx6zuT3XEwWVWlEGo10-133" value="" style="shape=tableRow;horizontal=0;startSize=0;swimlaneHead=0;swimlaneBody=0;collapsible=0;dropTarget=0;points=[[0,0.5],[1,0.5]];portConstraint=eastwest;top=0;left=0;right=0;bottom=0;fillColor=none;labelBackgroundColor=none;" parent="rJx6zuT3XEwWVWlEGo10-117" vertex="1">
                    <mxGeometry y="180" width="642.7142857142856" height="30" as="geometry"/>
                </mxCell>
                <mxCell id="rJx6zuT3XEwWVWlEGo10-134" value="" style="shape=partialRectangle;overflow=hidden;connectable=0;top=0;left=0;bottom=0;right=0;fillColor=none;labelBackgroundColor=none;" parent="rJx6zuT3XEwWVWlEGo10-133" vertex="1">
                    <mxGeometry width="30" height="30" as="geometry">
                        <mxRectangle width="30" height="30" as="alternateBounds"/>
                    </mxGeometry>
                </mxCell>
                <mxCell id="rJx6zuT3XEwWVWlEGo10-135" value="media_url VARCHAR(2083)" style="shape=partialRectangle;overflow=hidden;connectable=0;align=left;top=0;left=0;bottom=0;right=0;spacingLeft=6;fillColor=none;labelBackgroundColor=none;" parent="rJx6zuT3XEwWVWlEGo10-133" vertex="1">
                    <mxGeometry x="30" width="612.7142857142856" height="30" as="geometry">
                        <mxRectangle width="612.7142857142856" height="30" as="alternateBounds"/>
                    </mxGeometry>
                </mxCell>
                <mxCell id="rJx6zuT3XEwWVWlEGo10-136" value="" style="shape=tableRow;horizontal=0;startSize=0;swimlaneHead=0;swimlaneBody=0;collapsible=0;dropTarget=0;points=[[0,0.5],[1,0.5]];portConstraint=eastwest;top=0;left=0;right=0;bottom=0;fillColor=none;labelBackgroundColor=none;" parent="rJx6zuT3XEwWVWlEGo10-117" vertex="1">
                    <mxGeometry y="210" width="642.7142857142856" height="30" as="geometry"/>
                </mxCell>
                <mxCell id="rJx6zuT3XEwWVWlEGo10-137" value="" style="shape=partialRectangle;overflow=hidden;connectable=0;top=0;left=0;bottom=0;right=0;fillColor=none;labelBackgroundColor=none;" parent="rJx6zuT3XEwWVWlEGo10-136" vertex="1">
                    <mxGeometry width="30" height="30" as="geometry">
                        <mxRectangle width="30" height="30" as="alternateBounds"/>
                    </mxGeometry>
                </mxCell>
                <mxCell id="rJx6zuT3XEwWVWlEGo10-138" value="created_at TIMESTAMP DEFAULT CURRENT_TIMESTAMP" style="shape=partialRectangle;overflow=hidden;connectable=0;align=left;top=0;left=0;bottom=0;right=0;spacingLeft=6;fillColor=none;labelBackgroundColor=none;" parent="rJx6zuT3XEwWVWlEGo10-136" vertex="1">
                    <mxGeometry x="30" width="612.7142857142856" height="30" as="geometry">
                        <mxRectangle width="612.7142857142856" height="30" as="alternateBounds"/>
                    </mxGeometry>
                </mxCell>
                <mxCell id="rJx6zuT3XEwWVWlEGo10-139" value="" style="shape=tableRow;horizontal=0;startSize=0;swimlaneHead=0;swimlaneBody=0;collapsible=0;dropTarget=0;points=[[0,0.5],[1,0.5]];portConstraint=eastwest;top=0;left=0;right=0;bottom=0;fillColor=none;labelBackgroundColor=none;" parent="rJx6zuT3XEwWVWlEGo10-117" vertex="1">
                    <mxGeometry y="240" width="642.7142857142856" height="30" as="geometry"/>
                </mxCell>
                <mxCell id="rJx6zuT3XEwWVWlEGo10-140" value="" style="shape=partialRectangle;overflow=hidden;connectable=0;top=0;left=0;bottom=0;right=0;fillColor=none;labelBackgroundColor=none;" parent="rJx6zuT3XEwWVWlEGo10-139" vertex="1">
                    <mxGeometry width="30" height="30" as="geometry">
                        <mxRectangle width="30" height="30" as="alternateBounds"/>
                    </mxGeometry>
                </mxCell>
                <mxCell id="rJx6zuT3XEwWVWlEGo10-141" value="FOREIGN KEY (conversation_id) REFERENCES Conversation(id) ON DELETE CASCADE" style="shape=partialRectangle;overflow=hidden;connectable=0;align=left;top=0;left=0;bottom=0;right=0;spacingLeft=6;fillColor=none;labelBackgroundColor=none;" parent="rJx6zuT3XEwWVWlEGo10-139" vertex="1">
                    <mxGeometry x="30" width="612.7142857142856" height="30" as="geometry">
                        <mxRectangle width="612.7142857142856" height="30" as="alternateBounds"/>
                    </mxGeometry>
                </mxCell>
                <mxCell id="rJx6zuT3XEwWVWlEGo10-142" value="" style="shape=tableRow;horizontal=0;startSize=0;swimlaneHead=0;swimlaneBody=0;collapsible=0;dropTarget=0;points=[[0,0.5],[1,0.5]];portConstraint=eastwest;top=0;left=0;right=0;bottom=0;fillColor=none;labelBackgroundColor=none;" parent="rJx6zuT3XEwWVWlEGo10-117" vertex="1">
                    <mxGeometry y="270" width="642.7142857142856" height="30" as="geometry"/>
                </mxCell>
                <mxCell id="rJx6zuT3XEwWVWlEGo10-143" value="" style="shape=partialRectangle;overflow=hidden;connectable=0;top=0;left=0;bottom=0;right=0;fillColor=none;labelBackgroundColor=none;" parent="rJx6zuT3XEwWVWlEGo10-142" vertex="1">
                    <mxGeometry width="30" height="30" as="geometry">
                        <mxRectangle width="30" height="30" as="alternateBounds"/>
                    </mxGeometry>
                </mxCell>
                <mxCell id="rJx6zuT3XEwWVWlEGo10-144" value="FOREIGN KEY (sender_id) REFERENCES User(id) ON DELETE CASCADE" style="shape=partialRectangle;overflow=hidden;connectable=0;align=left;top=0;left=0;bottom=0;right=0;spacingLeft=6;fillColor=none;labelBackgroundColor=none;" parent="rJx6zuT3XEwWVWlEGo10-142" vertex="1">
                    <mxGeometry x="30" width="612.7142857142856" height="30" as="geometry">
                        <mxRectangle width="612.7142857142856" height="30" as="alternateBounds"/>
                    </mxGeometry>
                </mxCell>
                <mxCell id="rJx6zuT3XEwWVWlEGo10-145" value="MessageReaction" style="shape=table;startSize=28;container=1;collapsible=1;childLayout=tableLayout;fixedRows=1;rowLines=0;fontStyle=1;align=center;resizeLast=1;fillColor=#1ba1e2;labelBackgroundColor=none;fontColor=#ffffff;strokeColor=#006EAF;" parent="1" vertex="1">
                    <mxGeometry x="1110" y="1249" width="491.375" height="240" as="geometry"/>
                </mxCell>
                <mxCell id="rJx6zuT3XEwWVWlEGo10-146" value="" style="shape=tableRow;horizontal=0;startSize=0;swimlaneHead=0;swimlaneBody=0;collapsible=0;dropTarget=0;points=[[0,0.5],[1,0.5]];portConstraint=eastwest;top=0;left=0;right=0;bottom=1;fillColor=none;labelBackgroundColor=none;" parent="rJx6zuT3XEwWVWlEGo10-145" vertex="1">
                    <mxGeometry y="28" width="491.375" height="30" as="geometry"/>
                </mxCell>
                <mxCell id="rJx6zuT3XEwWVWlEGo10-147" value="PK" style="shape=partialRectangle;overflow=hidden;connectable=0;top=0;left=0;bottom=0;right=0;fontStyle=1;fillColor=none;labelBackgroundColor=none;" parent="rJx6zuT3XEwWVWlEGo10-146" vertex="1">
                    <mxGeometry width="30" height="30" as="geometry">
                        <mxRectangle width="30" height="30" as="alternateBounds"/>
                    </mxGeometry>
                </mxCell>
                <mxCell id="rJx6zuT3XEwWVWlEGo10-148" value="id CHAR(36) " style="shape=partialRectangle;overflow=hidden;connectable=0;align=left;top=0;left=0;bottom=0;right=0;spacingLeft=6;fontStyle=5;fillColor=none;labelBackgroundColor=none;" parent="rJx6zuT3XEwWVWlEGo10-146" vertex="1">
                    <mxGeometry x="30" width="461.375" height="30" as="geometry">
                        <mxRectangle width="461.375" height="30" as="alternateBounds"/>
                    </mxGeometry>
                </mxCell>
                <mxCell id="rJx6zuT3XEwWVWlEGo10-149" value="" style="shape=tableRow;horizontal=0;startSize=0;swimlaneHead=0;swimlaneBody=0;collapsible=0;dropTarget=0;points=[[0,0.5],[1,0.5]];portConstraint=eastwest;top=0;left=0;right=0;bottom=0;fillColor=none;labelBackgroundColor=none;" parent="rJx6zuT3XEwWVWlEGo10-145" vertex="1">
                    <mxGeometry y="58" width="491.375" height="30" as="geometry"/>
                </mxCell>
                <mxCell id="rJx6zuT3XEwWVWlEGo10-150" value="" style="shape=partialRectangle;overflow=hidden;connectable=0;top=0;left=0;bottom=0;right=0;fillColor=none;labelBackgroundColor=none;" parent="rJx6zuT3XEwWVWlEGo10-149" vertex="1">
                    <mxGeometry width="30" height="30" as="geometry">
                        <mxRectangle width="30" height="30" as="alternateBounds"/>
                    </mxGeometry>
                </mxCell>
                <mxCell id="rJx6zuT3XEwWVWlEGo10-151" value="message_id CHAR(36)" style="shape=partialRectangle;overflow=hidden;connectable=0;align=left;top=0;left=0;bottom=0;right=0;spacingLeft=6;fillColor=none;labelBackgroundColor=none;" parent="rJx6zuT3XEwWVWlEGo10-149" vertex="1">
                    <mxGeometry x="30" width="461.375" height="30" as="geometry">
                        <mxRectangle width="461.375" height="30" as="alternateBounds"/>
                    </mxGeometry>
                </mxCell>
                <mxCell id="rJx6zuT3XEwWVWlEGo10-152" value="" style="shape=tableRow;horizontal=0;startSize=0;swimlaneHead=0;swimlaneBody=0;collapsible=0;dropTarget=0;points=[[0,0.5],[1,0.5]];portConstraint=eastwest;top=0;left=0;right=0;bottom=0;fillColor=none;labelBackgroundColor=none;" parent="rJx6zuT3XEwWVWlEGo10-145" vertex="1">
                    <mxGeometry y="88" width="491.375" height="30" as="geometry"/>
                </mxCell>
                <mxCell id="rJx6zuT3XEwWVWlEGo10-153" value="" style="shape=partialRectangle;overflow=hidden;connectable=0;top=0;left=0;bottom=0;right=0;fillColor=none;labelBackgroundColor=none;" parent="rJx6zuT3XEwWVWlEGo10-152" vertex="1">
                    <mxGeometry width="30" height="30" as="geometry">
                        <mxRectangle width="30" height="30" as="alternateBounds"/>
                    </mxGeometry>
                </mxCell>
                <mxCell id="rJx6zuT3XEwWVWlEGo10-154" value="user_id CHAR(36)" style="shape=partialRectangle;overflow=hidden;connectable=0;align=left;top=0;left=0;bottom=0;right=0;spacingLeft=6;fillColor=none;labelBackgroundColor=none;" parent="rJx6zuT3XEwWVWlEGo10-152" vertex="1">
                    <mxGeometry x="30" width="461.375" height="30" as="geometry">
                        <mxRectangle width="461.375" height="30" as="alternateBounds"/>
                    </mxGeometry>
                </mxCell>
                <mxCell id="rJx6zuT3XEwWVWlEGo10-155" value="" style="shape=tableRow;horizontal=0;startSize=0;swimlaneHead=0;swimlaneBody=0;collapsible=0;dropTarget=0;points=[[0,0.5],[1,0.5]];portConstraint=eastwest;top=0;left=0;right=0;bottom=0;fillColor=none;labelBackgroundColor=none;" parent="rJx6zuT3XEwWVWlEGo10-145" vertex="1">
                    <mxGeometry y="118" width="491.375" height="30" as="geometry"/>
                </mxCell>
                <mxCell id="rJx6zuT3XEwWVWlEGo10-156" value="" style="shape=partialRectangle;overflow=hidden;connectable=0;top=0;left=0;bottom=0;right=0;fillColor=none;labelBackgroundColor=none;" parent="rJx6zuT3XEwWVWlEGo10-155" vertex="1">
                    <mxGeometry width="30" height="30" as="geometry">
                        <mxRectangle width="30" height="30" as="alternateBounds"/>
                    </mxGeometry>
                </mxCell>
                <mxCell id="rJx6zuT3XEwWVWlEGo10-157" value="reaction_type VARCHAR(50)" style="shape=partialRectangle;overflow=hidden;connectable=0;align=left;top=0;left=0;bottom=0;right=0;spacingLeft=6;fillColor=none;labelBackgroundColor=none;" parent="rJx6zuT3XEwWVWlEGo10-155" vertex="1">
                    <mxGeometry x="30" width="461.375" height="30" as="geometry">
                        <mxRectangle width="461.375" height="30" as="alternateBounds"/>
                    </mxGeometry>
                </mxCell>
                <mxCell id="rJx6zuT3XEwWVWlEGo10-158" value="" style="shape=tableRow;horizontal=0;startSize=0;swimlaneHead=0;swimlaneBody=0;collapsible=0;dropTarget=0;points=[[0,0.5],[1,0.5]];portConstraint=eastwest;top=0;left=0;right=0;bottom=0;fillColor=none;labelBackgroundColor=none;" parent="rJx6zuT3XEwWVWlEGo10-145" vertex="1">
                    <mxGeometry y="148" width="491.375" height="30" as="geometry"/>
                </mxCell>
                <mxCell id="rJx6zuT3XEwWVWlEGo10-159" value="" style="shape=partialRectangle;overflow=hidden;connectable=0;top=0;left=0;bottom=0;right=0;fillColor=none;labelBackgroundColor=none;" parent="rJx6zuT3XEwWVWlEGo10-158" vertex="1">
                    <mxGeometry width="30" height="30" as="geometry">
                        <mxRectangle width="30" height="30" as="alternateBounds"/>
                    </mxGeometry>
                </mxCell>
                <mxCell id="rJx6zuT3XEwWVWlEGo10-160" value="created_at TIMESTAMP DEFAULT CURRENT_TIMESTAMP" style="shape=partialRectangle;overflow=hidden;connectable=0;align=left;top=0;left=0;bottom=0;right=0;spacingLeft=6;fillColor=none;labelBackgroundColor=none;" parent="rJx6zuT3XEwWVWlEGo10-158" vertex="1">
                    <mxGeometry x="30" width="461.375" height="30" as="geometry">
                        <mxRectangle width="461.375" height="30" as="alternateBounds"/>
                    </mxGeometry>
                </mxCell>
                <mxCell id="rJx6zuT3XEwWVWlEGo10-161" value="" style="shape=tableRow;horizontal=0;startSize=0;swimlaneHead=0;swimlaneBody=0;collapsible=0;dropTarget=0;points=[[0,0.5],[1,0.5]];portConstraint=eastwest;top=0;left=0;right=0;bottom=0;fillColor=none;labelBackgroundColor=none;" parent="rJx6zuT3XEwWVWlEGo10-145" vertex="1">
                    <mxGeometry y="178" width="491.375" height="30" as="geometry"/>
                </mxCell>
                <mxCell id="rJx6zuT3XEwWVWlEGo10-162" value="" style="shape=partialRectangle;overflow=hidden;connectable=0;top=0;left=0;bottom=0;right=0;fillColor=none;labelBackgroundColor=none;" parent="rJx6zuT3XEwWVWlEGo10-161" vertex="1">
                    <mxGeometry width="30" height="30" as="geometry">
                        <mxRectangle width="30" height="30" as="alternateBounds"/>
                    </mxGeometry>
                </mxCell>
                <mxCell id="rJx6zuT3XEwWVWlEGo10-163" value="FOREIGN KEY (message_id) REFERENCES Message(id) ON DELETE CASCADE" style="shape=partialRectangle;overflow=hidden;connectable=0;align=left;top=0;left=0;bottom=0;right=0;spacingLeft=6;fillColor=none;labelBackgroundColor=none;" parent="rJx6zuT3XEwWVWlEGo10-161" vertex="1">
                    <mxGeometry x="30" width="461.375" height="30" as="geometry">
                        <mxRectangle width="461.375" height="30" as="alternateBounds"/>
                    </mxGeometry>
                </mxCell>
                <mxCell id="rJx6zuT3XEwWVWlEGo10-164" value="" style="shape=tableRow;horizontal=0;startSize=0;swimlaneHead=0;swimlaneBody=0;collapsible=0;dropTarget=0;points=[[0,0.5],[1,0.5]];portConstraint=eastwest;top=0;left=0;right=0;bottom=0;fillColor=none;labelBackgroundColor=none;" parent="rJx6zuT3XEwWVWlEGo10-145" vertex="1">
                    <mxGeometry y="208" width="491.375" height="30" as="geometry"/>
                </mxCell>
                <mxCell id="rJx6zuT3XEwWVWlEGo10-165" value="" style="shape=partialRectangle;overflow=hidden;connectable=0;top=0;left=0;bottom=0;right=0;fillColor=none;labelBackgroundColor=none;" parent="rJx6zuT3XEwWVWlEGo10-164" vertex="1">
                    <mxGeometry width="30" height="30" as="geometry">
                        <mxRectangle width="30" height="30" as="alternateBounds"/>
                    </mxGeometry>
                </mxCell>
                <mxCell id="rJx6zuT3XEwWVWlEGo10-166" value="FOREIGN KEY (user_id) REFERENCES User(id) ON DELETE CASCADE" style="shape=partialRectangle;overflow=hidden;connectable=0;align=left;top=0;left=0;bottom=0;right=0;spacingLeft=6;fillColor=none;labelBackgroundColor=none;" parent="rJx6zuT3XEwWVWlEGo10-164" vertex="1">
                    <mxGeometry x="30" width="461.375" height="30" as="geometry">
                        <mxRectangle width="461.375" height="30" as="alternateBounds"/>
                    </mxGeometry>
                </mxCell>
                <mxCell id="rJx6zuT3XEwWVWlEGo10-167" value="Attachment" style="shape=table;startSize=30;container=1;collapsible=1;childLayout=tableLayout;fixedRows=1;rowLines=0;fontStyle=1;align=center;resizeLast=1;fillColor=#1ba1e2;labelBackgroundColor=none;fontColor=#ffffff;strokeColor=#006EAF;" parent="1" vertex="1">
                    <mxGeometry x="-805" y="1256" width="582" height="217" as="geometry"/>
                </mxCell>
                <mxCell id="rJx6zuT3XEwWVWlEGo10-168" value="" style="shape=tableRow;horizontal=0;startSize=0;swimlaneHead=0;swimlaneBody=0;collapsible=0;dropTarget=0;points=[[0,0.5],[1,0.5]];portConstraint=eastwest;top=0;left=0;right=0;bottom=1;fillColor=none;labelBackgroundColor=none;" parent="rJx6zuT3XEwWVWlEGo10-167" vertex="1">
                    <mxGeometry y="30" width="582" height="30" as="geometry"/>
                </mxCell>
                <mxCell id="rJx6zuT3XEwWVWlEGo10-169" value="PK" style="shape=partialRectangle;overflow=hidden;connectable=0;top=0;left=0;bottom=0;right=0;fontStyle=1;fillColor=none;labelBackgroundColor=none;" parent="rJx6zuT3XEwWVWlEGo10-168" vertex="1">
                    <mxGeometry width="30" height="30" as="geometry">
                        <mxRectangle width="30" height="30" as="alternateBounds"/>
                    </mxGeometry>
                </mxCell>
                <mxCell id="rJx6zuT3XEwWVWlEGo10-170" value="id CHAR(36) " style="shape=partialRectangle;overflow=hidden;connectable=0;align=left;top=0;left=0;bottom=0;right=0;spacingLeft=6;fontStyle=5;fillColor=none;labelBackgroundColor=none;" parent="rJx6zuT3XEwWVWlEGo10-168" vertex="1">
                    <mxGeometry x="30" width="552" height="30" as="geometry">
                        <mxRectangle width="552" height="30" as="alternateBounds"/>
                    </mxGeometry>
                </mxCell>
                <mxCell id="rJx6zuT3XEwWVWlEGo10-171" value="" style="shape=tableRow;horizontal=0;startSize=0;swimlaneHead=0;swimlaneBody=0;collapsible=0;dropTarget=0;points=[[0,0.5],[1,0.5]];portConstraint=eastwest;top=0;left=0;right=0;bottom=0;fillColor=none;labelBackgroundColor=none;" parent="rJx6zuT3XEwWVWlEGo10-167" vertex="1">
                    <mxGeometry y="60" width="582" height="37" as="geometry"/>
                </mxCell>
                <mxCell id="rJx6zuT3XEwWVWlEGo10-172" value="" style="shape=partialRectangle;overflow=hidden;connectable=0;top=0;left=0;bottom=0;right=0;fillColor=none;labelBackgroundColor=none;" parent="rJx6zuT3XEwWVWlEGo10-171" vertex="1">
                    <mxGeometry width="30" height="37" as="geometry">
                        <mxRectangle width="30" height="37" as="alternateBounds"/>
                    </mxGeometry>
                </mxCell>
                <mxCell id="rJx6zuT3XEwWVWlEGo10-173" value="message_id CHAR(36)" style="shape=partialRectangle;overflow=hidden;connectable=0;align=left;top=0;left=0;bottom=0;right=0;spacingLeft=6;fillColor=none;labelBackgroundColor=none;" parent="rJx6zuT3XEwWVWlEGo10-171" vertex="1">
                    <mxGeometry x="30" width="552" height="37" as="geometry">
                        <mxRectangle width="552" height="37" as="alternateBounds"/>
                    </mxGeometry>
                </mxCell>
                <mxCell id="rJx6zuT3XEwWVWlEGo10-174" value="" style="shape=tableRow;horizontal=0;startSize=0;swimlaneHead=0;swimlaneBody=0;collapsible=0;dropTarget=0;points=[[0,0.5],[1,0.5]];portConstraint=eastwest;top=0;left=0;right=0;bottom=0;fillColor=none;labelBackgroundColor=none;" parent="rJx6zuT3XEwWVWlEGo10-167" vertex="1">
                    <mxGeometry y="97" width="582" height="30" as="geometry"/>
                </mxCell>
                <mxCell id="rJx6zuT3XEwWVWlEGo10-175" value="" style="shape=partialRectangle;overflow=hidden;connectable=0;top=0;left=0;bottom=0;right=0;fillColor=none;labelBackgroundColor=none;" parent="rJx6zuT3XEwWVWlEGo10-174" vertex="1">
                    <mxGeometry width="30" height="30" as="geometry">
                        <mxRectangle width="30" height="30" as="alternateBounds"/>
                    </mxGeometry>
                </mxCell>
                <mxCell id="rJx6zuT3XEwWVWlEGo10-176" value="file_type VARCHAR(50)" style="shape=partialRectangle;overflow=hidden;connectable=0;align=left;top=0;left=0;bottom=0;right=0;spacingLeft=6;fillColor=none;labelBackgroundColor=none;" parent="rJx6zuT3XEwWVWlEGo10-174" vertex="1">
                    <mxGeometry x="30" width="552" height="30" as="geometry">
                        <mxRectangle width="552" height="30" as="alternateBounds"/>
                    </mxGeometry>
                </mxCell>
                <mxCell id="rJx6zuT3XEwWVWlEGo10-177" value="" style="shape=tableRow;horizontal=0;startSize=0;swimlaneHead=0;swimlaneBody=0;collapsible=0;dropTarget=0;points=[[0,0.5],[1,0.5]];portConstraint=eastwest;top=0;left=0;right=0;bottom=0;fillColor=none;labelBackgroundColor=none;" parent="rJx6zuT3XEwWVWlEGo10-167" vertex="1">
                    <mxGeometry y="127" width="582" height="30" as="geometry"/>
                </mxCell>
                <mxCell id="rJx6zuT3XEwWVWlEGo10-178" value="" style="shape=partialRectangle;overflow=hidden;connectable=0;top=0;left=0;bottom=0;right=0;fillColor=none;labelBackgroundColor=none;" parent="rJx6zuT3XEwWVWlEGo10-177" vertex="1">
                    <mxGeometry width="30" height="30" as="geometry">
                        <mxRectangle width="30" height="30" as="alternateBounds"/>
                    </mxGeometry>
                </mxCell>
                <mxCell id="rJx6zuT3XEwWVWlEGo10-179" value="file_url VARCHAR(2083)" style="shape=partialRectangle;overflow=hidden;connectable=0;align=left;top=0;left=0;bottom=0;right=0;spacingLeft=6;fillColor=none;labelBackgroundColor=none;" parent="rJx6zuT3XEwWVWlEGo10-177" vertex="1">
                    <mxGeometry x="30" width="552" height="30" as="geometry">
                        <mxRectangle width="552" height="30" as="alternateBounds"/>
                    </mxGeometry>
                </mxCell>
                <mxCell id="rJx6zuT3XEwWVWlEGo10-180" value="" style="shape=tableRow;horizontal=0;startSize=0;swimlaneHead=0;swimlaneBody=0;collapsible=0;dropTarget=0;points=[[0,0.5],[1,0.5]];portConstraint=eastwest;top=0;left=0;right=0;bottom=0;fillColor=none;labelBackgroundColor=none;" parent="rJx6zuT3XEwWVWlEGo10-167" vertex="1">
                    <mxGeometry y="157" width="582" height="30" as="geometry"/>
                </mxCell>
                <mxCell id="rJx6zuT3XEwWVWlEGo10-181" value="" style="shape=partialRectangle;overflow=hidden;connectable=0;top=0;left=0;bottom=0;right=0;fillColor=none;labelBackgroundColor=none;" parent="rJx6zuT3XEwWVWlEGo10-180" vertex="1">
                    <mxGeometry width="30" height="30" as="geometry">
                        <mxRectangle width="30" height="30" as="alternateBounds"/>
                    </mxGeometry>
                </mxCell>
                <mxCell id="rJx6zuT3XEwWVWlEGo10-182" value="uploaded_at TIMESTAMP DEFAULT CURRENT_TIMESTAMP" style="shape=partialRectangle;overflow=hidden;connectable=0;align=left;top=0;left=0;bottom=0;right=0;spacingLeft=6;fillColor=none;labelBackgroundColor=none;" parent="rJx6zuT3XEwWVWlEGo10-180" vertex="1">
                    <mxGeometry x="30" width="552" height="30" as="geometry">
                        <mxRectangle width="552" height="30" as="alternateBounds"/>
                    </mxGeometry>
                </mxCell>
                <mxCell id="rJx6zuT3XEwWVWlEGo10-183" value="" style="shape=tableRow;horizontal=0;startSize=0;swimlaneHead=0;swimlaneBody=0;collapsible=0;dropTarget=0;points=[[0,0.5],[1,0.5]];portConstraint=eastwest;top=0;left=0;right=0;bottom=0;fillColor=none;labelBackgroundColor=none;" parent="rJx6zuT3XEwWVWlEGo10-167" vertex="1">
                    <mxGeometry y="187" width="582" height="30" as="geometry"/>
                </mxCell>
                <mxCell id="rJx6zuT3XEwWVWlEGo10-184" value="" style="shape=partialRectangle;overflow=hidden;connectable=0;top=0;left=0;bottom=0;right=0;fillColor=none;labelBackgroundColor=none;" parent="rJx6zuT3XEwWVWlEGo10-183" vertex="1">
                    <mxGeometry width="30" height="30" as="geometry">
                        <mxRectangle width="30" height="30" as="alternateBounds"/>
                    </mxGeometry>
                </mxCell>
                <mxCell id="rJx6zuT3XEwWVWlEGo10-185" value="FOREIGN KEY (message_id) REFERENCES Message(id) ON DELETE CASCADE" style="shape=partialRectangle;overflow=hidden;connectable=0;align=left;top=0;left=0;bottom=0;right=0;spacingLeft=6;fillColor=none;labelBackgroundColor=none;" parent="rJx6zuT3XEwWVWlEGo10-183" vertex="1">
                    <mxGeometry x="30" width="552" height="30" as="geometry">
                        <mxRectangle width="552" height="30" as="alternateBounds"/>
                    </mxGeometry>
                </mxCell>
                <mxCell id="rJx6zuT3XEwWVWlEGo10-186" value="UserStatus" style="shape=table;startSize=30;container=1;collapsible=1;childLayout=tableLayout;fixedRows=1;rowLines=0;fontStyle=1;align=center;resizeLast=1;fillColor=#1ba1e2;labelBackgroundColor=none;fontColor=#ffffff;strokeColor=#006EAF;" parent="1" vertex="1">
                    <mxGeometry x="141.9999999999999" y="156" width="647.0512820512822" height="179" as="geometry"/>
                </mxCell>
                <mxCell id="rJx6zuT3XEwWVWlEGo10-187" value="" style="shape=tableRow;horizontal=0;startSize=0;swimlaneHead=0;swimlaneBody=0;collapsible=0;dropTarget=0;points=[[0,0.5],[1,0.5]];portConstraint=eastwest;top=0;left=0;right=0;bottom=1;fillColor=none;labelBackgroundColor=none;" parent="rJx6zuT3XEwWVWlEGo10-186" vertex="1">
                    <mxGeometry y="30" width="647.0512820512822" height="29" as="geometry"/>
                </mxCell>
                <mxCell id="rJx6zuT3XEwWVWlEGo10-188" value="PK" style="shape=partialRectangle;overflow=hidden;connectable=0;top=0;left=0;bottom=0;right=0;fontStyle=1;fillColor=none;labelBackgroundColor=none;" parent="rJx6zuT3XEwWVWlEGo10-187" vertex="1">
                    <mxGeometry width="30" height="29" as="geometry">
                        <mxRectangle width="30" height="29" as="alternateBounds"/>
                    </mxGeometry>
                </mxCell>
                <mxCell id="rJx6zuT3XEwWVWlEGo10-189" value="id CHAR(36) " style="shape=partialRectangle;overflow=hidden;connectable=0;align=left;top=0;left=0;bottom=0;right=0;spacingLeft=6;fontStyle=5;fillColor=none;labelBackgroundColor=none;" parent="rJx6zuT3XEwWVWlEGo10-187" vertex="1">
                    <mxGeometry x="30" width="617.0512820512822" height="29" as="geometry">
                        <mxRectangle width="617.0512820512822" height="29" as="alternateBounds"/>
                    </mxGeometry>
                </mxCell>
                <mxCell id="rJx6zuT3XEwWVWlEGo10-190" value="" style="shape=tableRow;horizontal=0;startSize=0;swimlaneHead=0;swimlaneBody=0;collapsible=0;dropTarget=0;points=[[0,0.5],[1,0.5]];portConstraint=eastwest;top=0;left=0;right=0;bottom=0;fillColor=none;labelBackgroundColor=none;" parent="rJx6zuT3XEwWVWlEGo10-186" vertex="1">
                    <mxGeometry y="59" width="647.0512820512822" height="30" as="geometry"/>
                </mxCell>
                <mxCell id="rJx6zuT3XEwWVWlEGo10-191" value="" style="shape=partialRectangle;overflow=hidden;connectable=0;top=0;left=0;bottom=0;right=0;fillColor=none;labelBackgroundColor=none;" parent="rJx6zuT3XEwWVWlEGo10-190" vertex="1">
                    <mxGeometry width="30" height="30" as="geometry">
                        <mxRectangle width="30" height="30" as="alternateBounds"/>
                    </mxGeometry>
                </mxCell>
                <mxCell id="rJx6zuT3XEwWVWlEGo10-192" value="user_id CHAR(36)" style="shape=partialRectangle;overflow=hidden;connectable=0;align=left;top=0;left=0;bottom=0;right=0;spacingLeft=6;fillColor=none;labelBackgroundColor=none;" parent="rJx6zuT3XEwWVWlEGo10-190" vertex="1">
                    <mxGeometry x="30" width="617.0512820512822" height="30" as="geometry">
                        <mxRectangle width="617.0512820512822" height="30" as="alternateBounds"/>
                    </mxGeometry>
                </mxCell>
                <mxCell id="rJx6zuT3XEwWVWlEGo10-193" value="" style="shape=tableRow;horizontal=0;startSize=0;swimlaneHead=0;swimlaneBody=0;collapsible=0;dropTarget=0;points=[[0,0.5],[1,0.5]];portConstraint=eastwest;top=0;left=0;right=0;bottom=0;fillColor=none;labelBackgroundColor=none;" parent="rJx6zuT3XEwWVWlEGo10-186" vertex="1">
                    <mxGeometry y="89" width="647.0512820512822" height="30" as="geometry"/>
                </mxCell>
                <mxCell id="rJx6zuT3XEwWVWlEGo10-194" value="" style="shape=partialRectangle;overflow=hidden;connectable=0;top=0;left=0;bottom=0;right=0;fillColor=none;labelBackgroundColor=none;" parent="rJx6zuT3XEwWVWlEGo10-193" vertex="1">
                    <mxGeometry width="30" height="30" as="geometry">
                        <mxRectangle width="30" height="30" as="alternateBounds"/>
                    </mxGeometry>
                </mxCell>
                <mxCell id="rJx6zuT3XEwWVWlEGo10-195" value="status VARCHAR(20) DEFAULT 'offline'" style="shape=partialRectangle;overflow=hidden;connectable=0;align=left;top=0;left=0;bottom=0;right=0;spacingLeft=6;fillColor=none;labelBackgroundColor=none;" parent="rJx6zuT3XEwWVWlEGo10-193" vertex="1">
                    <mxGeometry x="30" width="617.0512820512822" height="30" as="geometry">
                        <mxRectangle width="617.0512820512822" height="30" as="alternateBounds"/>
                    </mxGeometry>
                </mxCell>
                <mxCell id="rJx6zuT3XEwWVWlEGo10-196" value="" style="shape=tableRow;horizontal=0;startSize=0;swimlaneHead=0;swimlaneBody=0;collapsible=0;dropTarget=0;points=[[0,0.5],[1,0.5]];portConstraint=eastwest;top=0;left=0;right=0;bottom=0;fillColor=none;labelBackgroundColor=none;" parent="rJx6zuT3XEwWVWlEGo10-186" vertex="1">
                    <mxGeometry y="119" width="647.0512820512822" height="30" as="geometry"/>
                </mxCell>
                <mxCell id="rJx6zuT3XEwWVWlEGo10-197" value="" style="shape=partialRectangle;overflow=hidden;connectable=0;top=0;left=0;bottom=0;right=0;fillColor=none;labelBackgroundColor=none;" parent="rJx6zuT3XEwWVWlEGo10-196" vertex="1">
                    <mxGeometry width="30" height="30" as="geometry">
                        <mxRectangle width="30" height="30" as="alternateBounds"/>
                    </mxGeometry>
                </mxCell>
                <mxCell id="rJx6zuT3XEwWVWlEGo10-198" value="last_active TIMESTAMP DEFAULT CURRENT_TIMESTAMP ON UPDATE CURRENT_TIMESTAMP" style="shape=partialRectangle;overflow=hidden;connectable=0;align=left;top=0;left=0;bottom=0;right=0;spacingLeft=6;fillColor=none;labelBackgroundColor=none;" parent="rJx6zuT3XEwWVWlEGo10-196" vertex="1">
                    <mxGeometry x="30" width="617.0512820512822" height="30" as="geometry">
                        <mxRectangle width="617.0512820512822" height="30" as="alternateBounds"/>
                    </mxGeometry>
                </mxCell>
                <mxCell id="rJx6zuT3XEwWVWlEGo10-199" value="" style="shape=tableRow;horizontal=0;startSize=0;swimlaneHead=0;swimlaneBody=0;collapsible=0;dropTarget=0;points=[[0,0.5],[1,0.5]];portConstraint=eastwest;top=0;left=0;right=0;bottom=0;fillColor=none;labelBackgroundColor=none;" parent="rJx6zuT3XEwWVWlEGo10-186" vertex="1">
                    <mxGeometry y="149" width="647.0512820512822" height="30" as="geometry"/>
                </mxCell>
                <mxCell id="rJx6zuT3XEwWVWlEGo10-200" value="" style="shape=partialRectangle;overflow=hidden;connectable=0;top=0;left=0;bottom=0;right=0;fillColor=none;labelBackgroundColor=none;" parent="rJx6zuT3XEwWVWlEGo10-199" vertex="1">
                    <mxGeometry width="30" height="30" as="geometry">
                        <mxRectangle width="30" height="30" as="alternateBounds"/>
                    </mxGeometry>
                </mxCell>
                <mxCell id="rJx6zuT3XEwWVWlEGo10-201" value="FOREIGN KEY (user_id) REFERENCES User(id) ON DELETE CASCADE" style="shape=partialRectangle;overflow=hidden;connectable=0;align=left;top=0;left=0;bottom=0;right=0;spacingLeft=6;fillColor=none;labelBackgroundColor=none;" parent="rJx6zuT3XEwWVWlEGo10-199" vertex="1">
                    <mxGeometry x="30" width="617.0512820512822" height="30" as="geometry">
                        <mxRectangle width="617.0512820512822" height="30" as="alternateBounds"/>
                    </mxGeometry>
                </mxCell>
                <mxCell id="rJx6zuT3XEwWVWlEGo10-224" style="edgeStyle=orthogonalEdgeStyle;rounded=0;orthogonalLoop=1;jettySize=auto;html=1;labelBackgroundColor=none;fontColor=default;" parent="1" source="rJx6zuT3XEwWVWlEGo10-2" target="rJx6zuT3XEwWVWlEGo10-45" edge="1">
                    <mxGeometry relative="1" as="geometry"/>
                </mxCell>
                <mxCell id="rJx6zuT3XEwWVWlEGo10-226" style="edgeStyle=orthogonalEdgeStyle;rounded=0;orthogonalLoop=1;jettySize=auto;html=1;labelBackgroundColor=none;fontColor=default;" parent="1" source="rJx6zuT3XEwWVWlEGo10-27" target="rJx6zuT3XEwWVWlEGo10-55" edge="1">
                    <mxGeometry relative="1" as="geometry">
                        <Array as="points">
                            <mxPoint x="1394" y="436"/>
                            <mxPoint x="-519" y="436"/>
                        </Array>
                    </mxGeometry>
                </mxCell>
                <mxCell id="rJx6zuT3XEwWVWlEGo10-227" style="edgeStyle=orthogonalEdgeStyle;rounded=0;orthogonalLoop=1;jettySize=auto;html=1;labelBackgroundColor=none;fontColor=default;" parent="1" source="rJx6zuT3XEwWVWlEGo10-2" target="rJx6zuT3XEwWVWlEGo10-58" edge="1">
                    <mxGeometry relative="1" as="geometry"/>
                </mxCell>
                <mxCell id="rJx6zuT3XEwWVWlEGo10-228" style="edgeStyle=orthogonalEdgeStyle;rounded=0;orthogonalLoop=1;jettySize=auto;html=1;labelBackgroundColor=none;fontColor=default;" parent="1" source="rJx6zuT3XEwWVWlEGo10-2" target="rJx6zuT3XEwWVWlEGo10-74" edge="1">
                    <mxGeometry relative="1" as="geometry"/>
                </mxCell>
                <mxCell id="rJx6zuT3XEwWVWlEGo10-229" style="edgeStyle=orthogonalEdgeStyle;rounded=0;orthogonalLoop=1;jettySize=auto;html=1;labelBackgroundColor=none;fontColor=default;" parent="1" source="rJx6zuT3XEwWVWlEGo10-2" target="rJx6zuT3XEwWVWlEGo10-77" edge="1">
                    <mxGeometry relative="1" as="geometry"/>
                </mxCell>
                <mxCell id="rJx6zuT3XEwWVWlEGo10-230" style="edgeStyle=orthogonalEdgeStyle;rounded=0;orthogonalLoop=1;jettySize=auto;html=1;labelBackgroundColor=none;fontColor=default;" parent="1" source="rJx6zuT3XEwWVWlEGo10-27" target="rJx6zuT3XEwWVWlEGo10-99" edge="1">
                    <mxGeometry relative="1" as="geometry">
                        <Array as="points">
                            <mxPoint x="1830" y="662"/>
                            <mxPoint x="1830" y="1056"/>
                        </Array>
                    </mxGeometry>
                </mxCell>
                <mxCell id="rJx6zuT3XEwWVWlEGo10-231" style="edgeStyle=orthogonalEdgeStyle;rounded=0;orthogonalLoop=1;jettySize=auto;html=1;labelBackgroundColor=none;fontColor=default;" parent="1" edge="1">
                    <mxGeometry relative="1" as="geometry">
                        <mxPoint x="622.0775000000003" y="551" as="sourcePoint"/>
                        <mxPoint x="1216" y="1086.1111111111109" as="targetPoint"/>
                        <Array as="points">
                            <mxPoint x="956" y="551"/>
                            <mxPoint x="956" y="1086"/>
                        </Array>
                    </mxGeometry>
                </mxCell>
                <mxCell id="rJx6zuT3XEwWVWlEGo10-232" style="edgeStyle=orthogonalEdgeStyle;rounded=0;orthogonalLoop=1;jettySize=auto;html=1;labelBackgroundColor=none;fontColor=default;" parent="1" source="rJx6zuT3XEwWVWlEGo10-27" target="rJx6zuT3XEwWVWlEGo10-121" edge="1">
                    <mxGeometry relative="1" as="geometry">
                        <Array as="points">
                            <mxPoint x="820" y="662"/>
                            <mxPoint x="820" y="1055"/>
                        </Array>
                    </mxGeometry>
                </mxCell>
                <mxCell id="rJx6zuT3XEwWVWlEGo10-233" style="edgeStyle=orthogonalEdgeStyle;rounded=0;orthogonalLoop=1;jettySize=auto;html=1;labelBackgroundColor=none;fontColor=default;" parent="1" source="rJx6zuT3XEwWVWlEGo10-2" target="rJx6zuT3XEwWVWlEGo10-124" edge="1">
                    <mxGeometry relative="1" as="geometry">
                        <Array as="points">
                            <mxPoint x="36" y="551"/>
                            <mxPoint x="36" y="1085"/>
                        </Array>
                    </mxGeometry>
                </mxCell>
                <mxCell id="rJx6zuT3XEwWVWlEGo10-235" style="edgeStyle=orthogonalEdgeStyle;rounded=0;orthogonalLoop=1;jettySize=auto;html=1;labelBackgroundColor=none;fontColor=default;" parent="1" source="rJx6zuT3XEwWVWlEGo10-118" target="rJx6zuT3XEwWVWlEGo10-171" edge="1">
                    <mxGeometry relative="1" as="geometry">
                        <Array as="points">
                            <mxPoint x="-64" y="1025"/>
                            <mxPoint x="-64" y="1335"/>
                        </Array>
                    </mxGeometry>
                </mxCell>
                <mxCell id="rJx6zuT3XEwWVWlEGo10-236" style="edgeStyle=orthogonalEdgeStyle;rounded=0;orthogonalLoop=1;jettySize=auto;html=1;labelBackgroundColor=none;fontColor=default;" parent="1" source="rJx6zuT3XEwWVWlEGo10-2" target="rJx6zuT3XEwWVWlEGo10-190" edge="1">
                    <mxGeometry relative="1" as="geometry">
                        <mxPoint x="728" y="250" as="targetPoint"/>
                        <Array as="points"/>
                    </mxGeometry>
                </mxCell>
                <mxCell id="rJx6zuT3XEwWVWlEGo10-237" style="edgeStyle=orthogonalEdgeStyle;rounded=0;orthogonalLoop=1;jettySize=auto;html=1;labelBackgroundColor=none;fontColor=default;" parent="1" source="rJx6zuT3XEwWVWlEGo10-118" target="rJx6zuT3XEwWVWlEGo10-149" edge="1">
                    <mxGeometry relative="1" as="geometry">
                        <Array as="points">
                            <mxPoint x="820" y="1025"/>
                            <mxPoint x="820" y="1314"/>
                        </Array>
                    </mxGeometry>
                </mxCell>
                <mxCell id="rJx6zuT3XEwWVWlEGo10-238" style="edgeStyle=orthogonalEdgeStyle;rounded=0;orthogonalLoop=1;jettySize=auto;html=1;entryX=0.188;entryY=1.076;entryDx=0;entryDy=0;entryPerimeter=0;labelBackgroundColor=none;fontColor=default;" parent="1" source="rJx6zuT3XEwWVWlEGo10-2" target="rJx6zuT3XEwWVWlEGo10-152" edge="1">
                    <mxGeometry relative="1" as="geometry">
                        <Array as="points">
                            <mxPoint x="994" y="551"/>
                            <mxPoint x="994" y="1369"/>
                        </Array>
                    </mxGeometry>
                </mxCell>
            </root>
        </mxGraphModel>
    </diagram>
</mxfile>